<svg version="1.1" xmlns="http://www.w3.org/2000/svg" viewBox="0 0 3398.2363165746647 2926.102541689923" width="3398.2363165746647" height="2926.102541689923" filter="invert(93%) hue-rotate(180deg)">
  <!-- svg-source:excalidraw -->
  
  <defs>
    <style>
      @font-face {
        font-family: "Virgil";
        src: url("https://excalidraw.com/Virgil.woff2");
      }
      @font-face {
        font-family: "Cascadia";
        src: url("https://excalidraw.com/Cascadia.woff2");
      }
    </style>
  </defs>
  <rect x="0" y="0" width="3398.2363165746647" height="2926.102541689923" fill="#ffffff"></rect><g stroke-linecap="round" transform="translate(404.0913200276848 154) rotate(0 148 67.5)"><path d="M-0.61 0.85 C97.25 0.74, 194.54 2.57, 297.24 1.17 M0.46 0.26 C115.71 -0.97, 232.15 -0.89, 295.46 -0.41 M294.83 -1.3 C295.17 41.23, 296.16 78.19, 295.66 133.68 M295.9 0.36 C295.5 38.14, 295.69 74.2, 295.67 135.12 M295.78 133.98 C198.31 135.29, 99.11 135.69, -1 133.93 M295.29 135.28 C180.95 133.78, 67.22 134.96, -0.01 134.4 M-1.4 136.53 C-1.18 82.02, -1.72 31.89, 0.71 -1.9 M0.15 135.59 C-0.31 99.18, -0.25 63.43, -0.8 -0.57" stroke="#000000" stroke-width="1" fill="none"></path></g><g transform="translate(463.5313200276853 189) rotate(0 86.28000000000003 32.19402985074623)"><text x="0" y="45.388059701492566" font-family="Virgil, Segoe UI Emoji" font-size="51.51044776119404px" fill="#2b8a3e" text-anchor="start" style="white-space: pre;" direction="ltr">Cliente</text></g><g stroke-linecap="round"><g transform="translate(845.5357644721291 27.88888888888914) rotate(0 0.4760487079486211 156.68535999410892)"><path d="M-1.17 0.43 C-1.12 52.37, -0.48 260.07, 0 312.23 M0.41 -0.39 C0.85 51.71, 1.99 261.77, 2.13 313.77" stroke="#000000" stroke-width="1" fill="none"></path></g></g><g stroke-linecap="round"><g transform="translate(699.9802089165735 217.88888888888914) rotate(0 72.36785224804447 -0.07080131168993375)"><path d="M-0.89 1.03 C23.24 0.91, 121.37 -0.66, 145.63 -1.17 M0.84 0.53 C24.74 0.65, 120.35 0.62, 144.71 0.33" stroke="#000000" stroke-width="1" fill="none"></path></g></g><g stroke-linecap="round"><g transform="translate(844.4246533610187 29) rotate(0 51.935698895363316 0.005999560640248092)"><path d="M-0.92 -1.05 C16.35 -1.16, 87.19 -0.76, 104.79 -0.49 M0.81 1.02 C17.84 1.05, 86.81 1.21, 104.02 0.79" stroke="#000000" stroke-width="1" fill="none"></path></g><g transform="translate(844.4246533610187 29) rotate(0 51.935698895363316 0.005999560640248092)"><path d="M74.18 11.88 C86.27 7.72, 99.2 2.68, 102.24 2.69 M75.04 12.06 C82.05 7.58, 89.05 6.72, 104.58 1.52" stroke="#000000" stroke-width="1" fill="none"></path></g><g transform="translate(844.4246533610187 29) rotate(0 51.935698895363316 0.005999560640248092)"><path d="M73.99 -8.65 C86.19 -4.63, 99.19 -1.51, 102.24 2.69 M74.85 -8.46 C81.96 -7.99, 89.01 -3.89, 104.58 1.52" stroke="#000000" stroke-width="1" fill="none"></path></g></g><g stroke-linecap="round"><g transform="translate(845.53576447213 339.0000000000002) rotate(0 49.960393915232316 0.011714114657365826)"><path d="M0.16 0.09 C16.92 0.32, 84.39 0.84, 101.14 0.93 M-1.22 -0.9 C15.43 -0.96, 83.88 -0.62, 100.79 -0.7" stroke="#000000" stroke-width="1" fill="none"></path></g><g transform="translate(845.53576447213 339.0000000000002) rotate(0 49.960393915232316 0.011714114657365826)"><path d="M72.74 11.43 C84.01 7.03, 93.36 4.03, 102.76 -2.56 M73.48 9.63 C83.41 6.21, 94.95 0.7, 100.57 -1.08" stroke="#000000" stroke-width="1" fill="none"></path></g><g transform="translate(845.53576447213 339.0000000000002) rotate(0 49.960393915232316 0.011714114657365826)"><path d="M72.76 -9.09 C83.94 -6.34, 93.29 -2.18, 102.76 -2.56 M73.5 -10.89 C83.42 -6.24, 94.95 -3.67, 100.57 -1.08" stroke="#000000" stroke-width="1" fill="none"></path></g></g><g stroke-linecap="round"><g transform="translate(846.6468755832395 257.8888888888889) rotate(0 50.3997108622454 -0.060109025426186236)"><path d="M0.73 -0.66 C17.44 -0.53, 84.42 0.2, 101.15 0.26 M-0.35 1.61 C16.22 1.4, 83.92 -1.6, 100.8 -1.73" stroke="#000000" stroke-width="1" fill="none"></path></g><g transform="translate(846.6468755832395 257.8888888888889) rotate(0 50.3997108622454 -0.060109025426186236)"><path d="M71.81 11.23 C83.87 6.84, 93.42 0.81, 101.1 -1.53 M72.11 8.56 C78.05 7.33, 84.48 4.92, 100.08 -0.75" stroke="#000000" stroke-width="1" fill="none"></path></g><g transform="translate(846.6468755832395 257.8888888888889) rotate(0 50.3997108622454 -0.060109025426186236)"><path d="M71.23 -9.28 C83.42 -5.97, 93.18 -4.29, 101.1 -1.53 M71.53 -11.96 C77.76 -8.8, 84.31 -6.82, 100.08 -0.75" stroke="#000000" stroke-width="1" fill="none"></path></g></g><g stroke-linecap="round"><g transform="translate(845.53576447213 183.4444444444448) rotate(0 49.9839677605778 -0.7497131777834056)"><path d="M-1.18 -0.03 C15.56 0.14, 84.4 0.12, 101.14 0.25 M0.41 -1.09 C17.02 -1.24, 83.9 -1.72, 100.8 -1.75" stroke="#000000" stroke-width="1" fill="none"></path></g><g transform="translate(845.53576447213 183.4444444444448) rotate(0 49.9839677605778 -0.7497131777834056)"><path d="M72.6 10.55 C83.33 3.94, 94.33 -0.09, 101.67 -0.06 M73.21 8.42 C83.94 4.07, 94.3 1.62, 99.88 -2.1" stroke="#000000" stroke-width="1" fill="none"></path></g><g transform="translate(845.53576447213 183.4444444444448) rotate(0 49.9839677605778 -0.7497131777834056)"><path d="M72.51 -9.97 C83.14 -9.14, 94.18 -5.74, 101.67 -0.06 M73.11 -12.1 C83.92 -8.73, 94.31 -3.47, 99.88 -2.1" stroke="#000000" stroke-width="1" fill="none"></path></g></g><g stroke-linecap="round"><g transform="translate(846.6468755832404 111.22222222222263) rotate(0 49.4561582718045 0.08852678072366871)"><path d="M-1.03 0.05 C15.54 0.43, 83.24 1.25, 99.94 1.14 M0.64 -0.98 C16.99 -0.79, 82.13 -0.59, 98.96 -0.36" stroke="#000000" stroke-width="1" fill="none"></path></g><g transform="translate(846.6468755832404 111.22222222222263) rotate(0 49.4561582718045 0.08852678072366871)"><path d="M70.76 9.58 C82.5 5.09, 89.38 3.35, 99.13 0.36 M70.64 9.92 C77.51 7.25, 85.1 4.7, 98.06 -0.16" stroke="#000000" stroke-width="1" fill="none"></path></g><g transform="translate(846.6468755832404 111.22222222222263) rotate(0 49.4561582718045 0.08852678072366871)"><path d="M70.93 -10.94 C82.41 -8.36, 89.23 -3.03, 99.13 0.36 M70.81 -10.6 C77.63 -7.7, 85.18 -4.68, 98.06 -0.16" stroke="#000000" stroke-width="1" fill="none"></path></g></g><g transform="translate(962.2024311387961 10) rotate(0 107.94444444444446 18.611111111111086)"><text x="0" y="26.22222222222222" font-family="Virgil, Segoe UI Emoji" font-size="29.77777777777778px" fill="#000000" text-anchor="start" style="white-space: pre;" direction="ltr">Nome Completo</text></g><g transform="translate(958.7024311387961 92.61111111111131) rotate(0 152 18.5)"><text x="0" y="26" font-family="Virgil, Segoe UI Emoji" font-size="29.77777777777778px" fill="#000000" text-anchor="start" style="white-space: pre;" direction="ltr">Data de Nascimento</text></g><g transform="translate(961.3135422499074 169.38888888888914) rotate(0 52.5 18.5)"><text x="0" y="26" font-family="Virgil, Segoe UI Emoji" font-size="29.77777777777778px" fill="#000000" text-anchor="start" style="white-space: pre;" direction="ltr">Gênero</text></g><g transform="translate(959.7024311387961 240.50000000000023) rotate(0 172.5 18.5)"><text x="0" y="26" font-family="Virgil, Segoe UI Emoji" font-size="29.77777777777778px" fill="#000000" text-anchor="start" style="white-space: pre;" direction="ltr">Empregado (sim ou não)</text></g><g transform="translate(960.8135422499074 321.61111111111154) rotate(0 53.5 18.5)"><text x="0" y="26" font-family="Virgil, Segoe UI Emoji" font-size="29.77777777777778px" fill="#000000" text-anchor="start" style="white-space: pre;" direction="ltr">Imagem</text></g><g stroke-linecap="round" transform="translate(402.6905263768915 580.1825396825398) rotate(0 148 67.5)"><path d="M0.86 -1.25 C87.62 2.2, 176.14 2.86, 294.79 -0.16 M0.36 0 C89.12 -2.43, 176.76 -1.29, 295.66 -0.36 M295.26 1.14 C296.63 45.55, 297.01 90.59, 295.42 133.14 M296.19 -0.9 C293.74 48.35, 293.81 96.83, 295.32 135.2 M296.18 135.04 C222.69 136.97, 148.83 134.77, -0.44 134.11 M296.45 135.3 C215.47 136.79, 133.48 136.15, 0.39 135.61 M1.27 133.06 C-1.49 90.86, 0.82 49.21, -1.85 -0.01 M-0.47 135.19 C-0.24 102.11, -1.76 67.56, -0.63 0.08" stroke="#000000" stroke-width="1" fill="none"></path></g><g transform="translate(450.46385971022414 613.515873015873) rotate(0 93.5 32.5)"><text x="0" y="46" font-family="Virgil, Segoe UI Emoji" font-size="51.51044776119404px" fill="#e67700" text-anchor="start" style="white-space: pre;" direction="ltr">Usuário</text></g><g stroke-linecap="round"><g transform="translate(842.4683041546689 525.7380952380954) rotate(0 0.14002144407072592 115.98020114653843)"><path d="M-1.02 -0.41 C-0.62 38.16, 0.82 193.53, 1.3 232.14 M0.65 -1.67 C1 37.04, 0.31 194.68, 0.44 233.63" stroke="#000000" stroke-width="1" fill="none"></path></g></g><g stroke-linecap="round"><g transform="translate(698.5794152657802 644.0714285714287) rotate(0 72.53068229088348 -0.9698388401781131)"><path d="M-0.41 0.18 C23.72 0.29, 121.31 -0.15, 145.47 -0.39 M1.58 -0.76 C25.48 -0.91, 120.25 -2.26, 144.48 -2.13" stroke="#000000" stroke-width="1" fill="none"></path></g></g><g stroke-linecap="round"><g transform="translate(841.3571930435576 526.8492063492065) rotate(0 51.99491626256355 -0.6041263626840419)"><path d="M0.18 -0.08 C17.88 -0.19, 87.81 -1.06, 105.17 -1.06 M-1.18 -1.17 C16.51 -1.13, 87.16 -0.43, 104.6 -0.03" stroke="#000000" stroke-width="1" fill="none"></path></g><g transform="translate(841.3571930435576 526.8492063492065) rotate(0 51.99491626256355 -0.6041263626840419)"><path d="M76.11 11 C80.76 7.42, 88.48 4.96, 106.19 0.94 M75.66 10.41 C84.22 6.63, 93.57 5.15, 103.63 -0.4" stroke="#000000" stroke-width="1" fill="none"></path></g><g transform="translate(841.3571930435576 526.8492063492065) rotate(0 51.99491626256355 -0.6041263626840419)"><path d="M76.43 -9.52 C80.94 -8.68, 88.59 -6.72, 106.19 0.94 M75.97 -10.11 C84.58 -7.75, 93.84 -3.08, 103.63 -0.4" stroke="#000000" stroke-width="1" fill="none"></path></g></g><g stroke-linecap="round"><g transform="translate(843.5794152657802 755.7380952380954) rotate(0 49.75735094691629 0.3288968511199073)"><path d="M0.72 -0.98 C17.34 -0.97, 83.38 -0.33, 99.87 -0.01 M-0.36 1.12 C16.07 1.35, 82.34 1.86, 98.86 1.52" stroke="#000000" stroke-width="1" fill="none"></path></g><g transform="translate(843.5794152657802 755.7380952380954) rotate(0 49.75735094691629 0.3288968511199073)"><path d="M69.08 11.69 C79.58 7.9, 90.06 6.16, 98.85 2.94 M70.25 11.41 C76.98 10.56, 81.4 7.08, 99.42 1.18" stroke="#000000" stroke-width="1" fill="none"></path></g><g transform="translate(843.5794152657802 755.7380952380954) rotate(0 49.75735094691629 0.3288968511199073)"><path d="M68.99 -8.84 C79.51 -6.15, 90.01 -1.42, 98.85 2.94 M70.17 -9.11 C76.79 -5.73, 81.23 -4.98, 99.42 1.18" stroke="#000000" stroke-width="1" fill="none"></path></g></g><g stroke-linecap="round"><g transform="translate(842.4683041546689 681.2936507936513) rotate(0 49.507028415426646 -0.10736516364943327)"><path d="M-0.98 -0.13 C15.7 -0.3, 83 -0.45, 99.99 -0.33 M0.71 -1.24 C17.24 -1.31, 82.38 1.06, 99.04 1.03" stroke="#000000" stroke-width="1" fill="none"></path></g><g transform="translate(842.4683041546689 681.2936507936513) rotate(0 49.507028415426646 -0.10736516364943327)"><path d="M70.44 10.73 C78.36 9.72, 88.2 5.27, 100.45 -0.85 M70.17 11.16 C78.4 7.57, 83.88 6.77, 98.7 0.77" stroke="#000000" stroke-width="1" fill="none"></path></g><g transform="translate(842.4683041546689 681.2936507936513) rotate(0 49.507028415426646 -0.10736516364943327)"><path d="M70.84 -9.78 C78.76 -4.79, 88.49 -3.23, 100.45 -0.85 M70.56 -9.36 C78.82 -8.02, 84.21 -3.88, 98.7 0.77" stroke="#000000" stroke-width="1" fill="none"></path></g></g><g stroke-linecap="round"><g transform="translate(843.5794152657802 609.0714285714287) rotate(0 49.005399257643205 -0.08829490347864066)"><path d="M-0.13 -0.01 C16.36 0.3, 82.88 0.89, 99.67 0.88 M-1.65 -1.06 C14.59 -0.98, 81.58 -1.12, 98.54 -0.74" stroke="#000000" stroke-width="1" fill="none"></path></g><g transform="translate(843.5794152657802 609.0714285714287) rotate(0 49.005399257643205 -0.08829490347864066)"><path d="M70.25 8.72 C82.12 6.67, 90.71 3.5, 96.66 -1.93 M70.68 10.25 C79.55 5.43, 91.3 1.84, 98.29 -0.89" stroke="#000000" stroke-width="1" fill="none"></path></g><g transform="translate(843.5794152657802 609.0714285714287) rotate(0 49.005399257643205 -0.08829490347864066)"><path d="M70.43 -11.8 C82.07 -6.45, 90.59 -2.24, 96.66 -1.93 M70.85 -10.27 C79.57 -7.68, 91.26 -3.86, 98.29 -0.89" stroke="#000000" stroke-width="1" fill="none"></path></g></g><g transform="translate(959.1349708213359 507.8492063492065) rotate(0 29 18.5)"><text x="0" y="26" font-family="Virgil, Segoe UI Emoji" font-size="29.77777777777778px" fill="#000000" text-anchor="start" style="white-space: pre;" direction="ltr">CPF</text></g><g transform="translate(955.6349708213368 590.4603174603178) rotate(0 42.5 18.5)"><text x="0" y="26" font-family="Virgil, Segoe UI Emoji" font-size="29.77777777777778px" fill="#000000" text-anchor="start" style="white-space: pre;" direction="ltr">Senha</text></g><g transform="translate(958.2460819324463 667.2380952380956) rotate(0 54 18.5)"><text x="0" y="26" font-family="Virgil, Segoe UI Emoji" font-size="29.77777777777778px" fill="#000000" text-anchor="start" style="white-space: pre;" direction="ltr">Estado</text></g><g transform="translate(958.9960819324472 740.3214285714287) rotate(0 212.5 18.5)"><text x="0" y="26" font-family="Virgil, Segoe UI Emoji" font-size="29.77777777777778px" fill="#2b8a3e" text-anchor="start" style="white-space: pre;" direction="ltr">RELACIONAR COM CLIENTE</text></g><g stroke-linecap="round" transform="translate(404.1766374880028 956.9186507936508) rotate(0 148 67.5)"><path d="M0.77 1.13 C107.77 0.09, 214.88 -0.67, 295.22 -0.53 M-0.17 -0.45 C97.47 -0.88, 195.89 -1.28, 295.73 -0.65 M294.33 -0.85 C296.96 43.53, 293.54 88.08, 295.53 134.17 M295.89 -0.11 C297.31 36.28, 296.45 71.78, 295.79 135.41 M295.51 134.43 C180.7 136.43, 65.02 138.61, 0.66 134.01 M296.16 135.28 C211.38 134.9, 125.9 134.69, -0.04 134.71 M1.2 133 C-0.89 103.36, 1.56 74.79, 0.03 -0.94 M-0.96 134.29 C-1.03 107.6, -1.26 79.68, 0.69 0.17" stroke="#000000" stroke-width="1" fill="none"></path></g><g transform="translate(439.94997082133546 990.2519841269843) rotate(0 111.5 32.5)"><text x="0" y="46" font-family="Virgil, Segoe UI Emoji" font-size="51.51044776119404px" fill="#862e9c" text-anchor="start" style="white-space: pre;" direction="ltr">Endereço</text></g><g stroke-linecap="round"><g transform="translate(843.9544152657802 902.4742063492065) rotate(0 0.37264873846021374 333.0821701265509)"><path d="M0.91 0.43 C0.83 111.42, 0.43 555.69, 0.21 666.55 M-0.07 -0.39 C-0.27 110.17, -0.02 553.44, -0.17 664.6" stroke="#000000" stroke-width="1" fill="none"></path></g></g><g stroke-linecap="round"><g transform="translate(700.0655263768915 1020.80753968254) rotate(0 72.54206940121742 -0.704796891450485)"><path d="M0.43 1.09 C24.64 0.84, 121.8 -0.19, 145.88 -0.63 M-0.8 0.62 C23.23 -0.08, 121 -2.33, 145.11 -2.5" stroke="#000000" stroke-width="1" fill="none"></path></g></g><g stroke-linecap="round"><g transform="translate(842.8433041546689 903.5853174603178) rotate(0 52.56640988507513 -0.09125346926305156)"><path d="M1.09 0.33 C18.43 0.14, 87.77 -0.7, 104.92 -0.71 M0.21 -0.55 C17.35 -0.62, 87.09 0.72, 104.23 0.5" stroke="#000000" stroke-width="1" fill="none"></path></g><g transform="translate(842.8433041546689 903.5853174603178) rotate(0 52.56640988507513 -0.09125346926305156)"><path d="M76.53 11.41 C85.52 5.83, 97.81 3.79, 104.87 0.04 M76.08 9.84 C82.41 7.39, 89.76 5.35, 103.3 -0.34" stroke="#000000" stroke-width="1" fill="none"></path></g><g transform="translate(842.8433041546689 903.5853174603178) rotate(0 52.56640988507513 -0.09125346926305156)"><path d="M76.64 -9.11 C85.66 -6.97, 97.91 -1.3, 104.87 0.04 M76.19 -10.68 C82.38 -8.24, 89.7 -5.38, 103.3 -0.34" stroke="#000000" stroke-width="1" fill="none"></path></g></g><g stroke-linecap="round"><g transform="translate(843.9544152657802 1058.0297619047624) rotate(0 49.42052893470043 0.047828951049609714)"><path d="M0.48 -0.63 C16.89 -0.62, 82.88 0.2, 99.57 0.37 M-0.73 1.66 C15.39 1.26, 81.58 -0.99, 98.4 -1.56" stroke="#000000" stroke-width="1" fill="none"></path></g><g transform="translate(843.9544152657802 1058.0297619047624) rotate(0 49.42052893470043 0.047828951049609714)"><path d="M69.52 8.93 C82.04 6.19, 92.96 0.31, 97.17 -2.75 M70.2 8.77 C78.5 6.26, 85.03 2.82, 97.97 -0.74" stroke="#000000" stroke-width="1" fill="none"></path></g><g transform="translate(843.9544152657802 1058.0297619047624) rotate(0 49.42052893470043 0.047828951049609714)"><path d="M68.83 -11.58 C81.67 -6.3, 92.86 -4.16, 97.17 -2.75 M69.51 -11.74 C78.02 -8.57, 84.74 -6.33, 97.97 -0.74" stroke="#000000" stroke-width="1" fill="none"></path></g></g><g stroke-linecap="round"><g transform="translate(845.0655263768915 985.80753968254) rotate(0 49.87011035941549 -0.6567006507831366)"><path d="M-0.63 -0.43 C16.04 -0.42, 83.53 0.53, 100.37 0.54 M1.24 -1.7 C17.76 -2.08, 83.18 -1.67, 99.61 -1.26" stroke="#000000" stroke-width="1" fill="none"></path></g><g transform="translate(845.0655263768915 985.80753968254) rotate(0 49.87011035941549 -0.6567006507831366)"><path d="M70.57 9.23 C81.56 6.18, 89.33 1.08, 98.42 -1.72 M70.41 8.85 C79.65 4.73, 88.11 2.17, 100.43 -1.35" stroke="#000000" stroke-width="1" fill="none"></path></g><g transform="translate(845.0655263768915 985.80753968254) rotate(0 49.87011035941549 -0.6567006507831366)"><path d="M70.85 -11.29 C81.83 -7.63, 89.51 -6.01, 98.42 -1.72 M70.69 -11.67 C79.69 -9.43, 88.06 -5.62, 100.43 -1.35" stroke="#000000" stroke-width="1" fill="none"></path></g></g><g transform="translate(960.6210819324472 884.5853174603178) rotate(0 33.5 18.5)"><text x="0" y="26" font-family="Virgil, Segoe UI Emoji" font-size="29.77777777777778px" fill="#000000" text-anchor="start" style="white-space: pre;" direction="ltr">País</text></g><g transform="translate(957.1210819324472 967.1964285714289) rotate(0 20 18.5)"><text x="0" y="26" font-family="Virgil, Segoe UI Emoji" font-size="29.77777777777778px" fill="#000000" text-anchor="start" style="white-space: pre;" direction="ltr">UF</text></g><g transform="translate(959.7321930435576 1043.9742063492067) rotate(0 49 18.5)"><text x="0" y="26" font-family="Virgil, Segoe UI Emoji" font-size="29.77777777777778px" fill="#000000" text-anchor="start" style="white-space: pre;" direction="ltr">Cidade</text></g><g stroke-linecap="round"><g transform="translate(843.9405263768915 1138.876984126984) rotate(0 50.53473658217115 -0.08285420872272198)"><path d="M0.84 0.8 C17.34 0.44, 82.71 -0.7, 99.04 -0.97 M-0.18 0.18 C16.69 0.45, 84.36 0.07, 101.25 0.06" stroke="#000000" stroke-width="1" fill="none"></path></g><g transform="translate(843.9405263768915 1138.876984126984) rotate(0 50.53473658217115 -0.08285420872272198)"><path d="M74.43 8.81 C79.89 5.16, 88.67 4.75, 99.94 1.13 M72.15 11.13 C78.09 7.61, 85.72 5.78, 101.31 -0.01" stroke="#000000" stroke-width="1" fill="none"></path></g><g transform="translate(843.9405263768915 1138.876984126984) rotate(0 50.53473658217115 -0.08285420872272198)"><path d="M74.37 -11.71 C80.04 -9.16, 88.85 -3.37, 99.94 1.13 M72.08 -9.39 C77.87 -8.62, 85.52 -6.16, 101.31 -0.01" stroke="#000000" stroke-width="1" fill="none"></path></g></g><g transform="translate(959.7183041546689 1124.8214285714284) rotate(0 46 18.5)"><text x="0" y="26" font-family="Virgil, Segoe UI Emoji" font-size="29.77777777777778px" fill="#000000" text-anchor="start" style="white-space: pre;" direction="ltr">Bairro</text></g><g stroke-linecap="round"><g transform="translate(841.9405263768915 1216.876984126984) rotate(0 49.381516328826535 -0.026575775318008255)"><path d="M-1.04 0.62 C15.75 0.68, 83.08 -0.76, 99.81 -0.67 M0.61 -0.1 C17.31 0.2, 82.49 0.59, 98.76 0.51" stroke="#000000" stroke-width="1" fill="none"></path></g><g transform="translate(841.9405263768915 1216.876984126984) rotate(0 49.381516328826535 -0.026575775318008255)"><path d="M71.58 10.4 C75.73 7.6, 85.03 5.29, 98.81 2.48 M70.77 9.8 C77.99 7.51, 84.67 4.74, 98.24 1.23" stroke="#000000" stroke-width="1" fill="none"></path></g><g transform="translate(841.9405263768915 1216.876984126984) rotate(0 49.381516328826535 -0.026575775318008255)"><path d="M71.62 -10.12 C75.58 -8.4, 84.87 -6.19, 98.81 2.48 M70.8 -10.72 C78.14 -8.18, 84.81 -6.1, 98.24 1.23" stroke="#000000" stroke-width="1" fill="none"></path></g></g><g transform="translate(957.7183041546689 1202.8214285714284) rotate(0 29.5 18.5)"><text x="0" y="26" font-family="Virgil, Segoe UI Emoji" font-size="29.77777777777778px" fill="#000000" text-anchor="start" style="white-space: pre;" direction="ltr">Rua</text></g><g stroke-linecap="round"><g transform="translate(841.9405263768915 1304.876984126984) rotate(0 50.0538390998077 -0.22910655476152897)"><path d="M0.77 0.45 C17.55 0.13, 83.91 -0.68, 100.39 -0.91 M-0.28 -0.35 C16.39 -0.03, 83.15 0.1, 99.64 0.15" stroke="#000000" stroke-width="1" fill="none"></path></g><g transform="translate(841.9405263768915 1304.876984126984) rotate(0 50.0538390998077 -0.22910655476152897)"><path d="M72.18 10.98 C77.72 6.65, 85.62 3.39, 100.49 1.78 M71.05 10.66 C78.17 8.3, 83.71 5.22, 99.21 0.42" stroke="#000000" stroke-width="1" fill="none"></path></g><g transform="translate(841.9405263768915 1304.876984126984) rotate(0 50.0538390998077 -0.22910655476152897)"><path d="M72.23 -9.54 C77.93 -8.13, 85.82 -5.64, 100.49 1.78 M71.11 -9.86 C78.32 -7.72, 83.85 -6.31, 99.21 0.42" stroke="#000000" stroke-width="1" fill="none"></path></g></g><g transform="translate(957.7183041546689 1290.8214285714284) rotate(0 181.5 18.5)"><text x="0" y="26" font-family="Virgil, Segoe UI Emoji" font-size="29.77777777777778px" fill="#000000" text-anchor="start" style="white-space: pre;" direction="ltr">Logradouro (casa/apto.)</text></g><g stroke-linecap="round"><g transform="translate(839.9405263768915 1398.876984126984) rotate(0 49.99264193791896 -0.26683630608022213)"><path d="M0.31 0.6 C16.77 0.34, 82.34 -1.06, 98.86 -1.13 M-0.99 -0.13 C15.81 -0.33, 84.42 -0.48, 100.98 -0.19" stroke="#000000" stroke-width="1" fill="none"></path></g><g transform="translate(839.9405263768915 1398.876984126984) rotate(0 49.99264193791896 -0.26683630608022213)"><path d="M73.72 8.01 C79.53 5.76, 90.46 2.15, 102.85 0.96 M72.39 10.5 C84.08 5.83, 95.7 2.22, 101.82 -0.62" stroke="#000000" stroke-width="1" fill="none"></path></g><g transform="translate(839.9405263768915 1398.876984126984) rotate(0 49.99264193791896 -0.26683630608022213)"><path d="M73.84 -12.51 C79.69 -8.42, 90.58 -5.69, 102.85 0.96 M72.51 -10.02 C84.03 -6.55, 95.61 -2.02, 101.82 -0.62" stroke="#000000" stroke-width="1" fill="none"></path></g></g><g transform="translate(955.7183041546689 1384.8214285714284) rotate(0 51 18.5)"><text x="0" y="26" font-family="Virgil, Segoe UI Emoji" font-size="29.77777777777778px" fill="#000000" text-anchor="start" style="white-space: pre;" direction="ltr">Número</text></g><g stroke-linecap="round"><g transform="translate(845.9405263768915 1480.876984126984) rotate(0 48.95955848371614 -0.6443081005376143)"><path d="M-0.03 -0.25 C16.48 -0.59, 82.63 -1.04, 99.43 -0.92 M-1.51 -1.43 C14.76 -1.13, 81.19 0.17, 98.18 0.14" stroke="#000000" stroke-width="1" fill="none"></path></g><g transform="translate(845.9405263768915 1480.876984126984) rotate(0 48.95955848371614 -0.6443081005376143)"><path d="M69.47 9.16 C77.62 8.14, 89.31 1.59, 99.32 -1.16 M69.46 10.95 C77.06 6.41, 84.9 4.35, 97.45 -0.27" stroke="#000000" stroke-width="1" fill="none"></path></g><g transform="translate(845.9405263768915 1480.876984126984) rotate(0 48.95955848371614 -0.6443081005376143)"><path d="M69.68 -11.36 C77.95 -5.6, 89.57 -5.37, 99.32 -1.16 M69.67 -9.57 C77.12 -8.97, 84.9 -5.9, 97.45 -0.27" stroke="#000000" stroke-width="1" fill="none"></path></g></g><g transform="translate(961.7183041546689 1466.8214285714284) rotate(0 30.5 18.5)"><text x="0" y="26" font-family="Virgil, Segoe UI Emoji" font-size="29.77777777777778px" fill="#000000" text-anchor="start" style="white-space: pre;" direction="ltr">CEP</text></g><g stroke-linecap="round"><g transform="translate(845.9405263768915 1564.876984126984) rotate(0 49.2497523018252 -0.3042866427730928)"><path d="M0.35 1.2 C16.74 1.15, 83 0.54, 99.43 0.21 M-0.93 0.78 C15.17 0.3, 81.15 -1.7, 98.18 -1.8" stroke="#000000" stroke-width="1" fill="none"></path></g><g transform="translate(845.9405263768915 1564.876984126984) rotate(0 49.2497523018252 -0.3042866427730928)"><path d="M72.2 8.07 C81.36 2.96, 90.56 -0.14, 99.25 -3.29 M71.08 8.11 C76.17 6.07, 84.68 4.09, 97.88 -1.24" stroke="#000000" stroke-width="1" fill="none"></path></g><g transform="translate(845.9405263768915 1564.876984126984) rotate(0 49.2497523018252 -0.3042866427730928)"><path d="M71.79 -12.45 C81.19 -9.6, 90.54 -4.75, 99.25 -3.29 M70.67 -12.41 C75.84 -9.48, 84.45 -6.48, 97.88 -1.24" stroke="#000000" stroke-width="1" fill="none"></path></g></g><g transform="translate(964.3294152657802 1548.821428571428) rotate(0 212.5 18.5)"><text x="0" y="26" font-family="Virgil, Segoe UI Emoji" font-size="29.77777777777778px" fill="#2b8a3e" text-anchor="start" style="white-space: pre;" direction="ltr">RELACIONAR COM CLIENTE</text></g><g stroke-linecap="round" transform="translate(409.50997082133586 1798.0853174603164) rotate(0 148 67.5)"><path d="M-0.74 0.59 C100.87 -1.41, 200.77 -0.5, 295.73 1.28 M0.22 -0.68 C84.98 -1.13, 171.15 -2.09, 295.55 -0.55 M295.26 0.64 C296.06 46.89, 294.35 89.24, 297.28 134.27 M296.62 -0.64 C296.09 33.77, 296.53 65.74, 296.63 134.38 M294.55 135.47 C214.29 132.96, 131.27 132.23, 1.18 135.88 M295.82 135.53 C190 134.13, 83.69 135.13, -0.26 134.48 M-1.27 134.92 C1.37 85.61, -0.76 39.16, -0.95 0.41 M0.06 134.99 C-1.43 95.74, -0.57 55.4, -0.57 0.46" stroke="#000000" stroke-width="1" fill="none"></path></g><g transform="translate(441.2833041546694 1833.4186507936495) rotate(0 118.5 32.5)"><text x="0" y="46" font-family="Virgil, Segoe UI Emoji" font-size="51.51044776119404px" fill="#364fc7" text-anchor="start" style="white-space: pre;" direction="ltr">Contatos</text></g><g stroke-linecap="round"><g transform="translate(849.2877485991141 1743.640873015872) rotate(0 -0.09430141306131645 110.6652983756001)"><path d="M0.48 0.83 C0.51 37.78, 0.49 184.58, 0.64 221.1 M-0.73 0.23 C-0.94 36.9, -0.8 182.61, -0.55 219.44" stroke="#000000" stroke-width="1" fill="none"></path></g></g><g stroke-linecap="round"><g transform="translate(705.3988597102245 1861.9742063492051) rotate(0 73.12519765026661 -1.64637918674903)"><path d="M0.83 -0.47 C25.34 -0.69, 122.35 -0.91, 146.44 -0.84 M-0.19 -1.76 C24.29 -2.4, 121.84 -2.81, 145.95 -2.83" stroke="#000000" stroke-width="1" fill="none"></path></g></g><g stroke-linecap="round"><g transform="translate(848.1766374880028 1744.751984126983) rotate(0 52.122392766384564 0.4297402641742849)"><path d="M-0.47 0.88 C16.91 0.7, 87.05 -0.1, 104.71 -0.28 M1.49 0.3 C18.68 0.23, 86.61 1.02, 103.9 1.14" stroke="#000000" stroke-width="1" fill="none"></path></g><g transform="translate(848.1766374880028 1744.751984126983) rotate(0 52.122392766384564 0.4297402641742849)"><path d="M77.09 11.58 C84.8 9.58, 94.55 6.44, 105.38 1.75 M75.5 10.5 C80.99 8.12, 87.86 6.53, 103.7 0.77" stroke="#000000" stroke-width="1" fill="none"></path></g><g transform="translate(848.1766374880028 1744.751984126983) rotate(0 52.122392766384564 0.4297402641742849)"><path d="M77.28 -8.94 C85.07 -3.97, 94.76 -0.14, 105.38 1.75 M75.7 -10.02 C80.97 -8.12, 87.79 -5.44, 103.7 0.77" stroke="#000000" stroke-width="1" fill="none"></path></g></g><g stroke-linecap="round"><g transform="translate(848.3988597102245 1858.9742063492051) rotate(0 49.04034165313465 0.3993455825392118)"><path d="M-0.22 1.04 C16.28 1.18, 83.02 1.24, 99.87 1.11 M-1.79 0.53 C14.46 0.35, 81.79 0.02, 98.86 -0.38" stroke="#000000" stroke-width="1" fill="none"></path></g><g transform="translate(848.3988597102245 1858.9742063492051) rotate(0 49.04034165313465 0.3993455825392118)"><path d="M72.53 10.03 C83.24 7.8, 92.34 0.52, 97.13 0.95 M70.06 10.62 C78.71 7.14, 86.69 4.6, 99.06 0.29" stroke="#000000" stroke-width="1" fill="none"></path></g><g transform="translate(848.3988597102245 1858.9742063492051) rotate(0 49.04034165313465 0.3993455825392118)"><path d="M72.26 -10.49 C83.12 -5.05, 92.32 -4.67, 97.13 0.95 M69.79 -9.9 C78.39 -7.45, 86.45 -4.08, 99.06 0.29" stroke="#000000" stroke-width="1" fill="none"></path></g></g><g transform="translate(965.9544152657802 1725.751984126983) rotate(0 63.5 18.5)"><text x="0" y="26" font-family="Virgil, Segoe UI Emoji" font-size="29.77777777777778px" fill="#000000" text-anchor="start" style="white-space: pre;" direction="ltr">Telefone</text></g><g transform="translate(960.4544152657802 1840.3630952380943) rotate(0 37.5 18.5)"><text x="0" y="26" font-family="Virgil, Segoe UI Emoji" font-size="29.77777777777778px" fill="#000000" text-anchor="start" style="white-space: pre;" direction="ltr">Email</text></g><g stroke-linecap="round"><g transform="translate(850.1210819324463 1964.4047619047608) rotate(0 49.83813065815718 0.4228146662749346)"><path d="M-0.22 0.61 C16.33 0.42, 82.28 -0.14, 99.18 -0.27 M-1.79 -0.11 C15.15 -0.2, 84.33 0.92, 101.47 1.12" stroke="#000000" stroke-width="1" fill="none"></path></g><g transform="translate(850.1210819324463 1964.4047619047608) rotate(0 49.83813065815718 0.4228146662749346)"><path d="M74.16 9.63 C80.8 10.15, 89.18 6.68, 101.32 2.38 M72.85 10.97 C78.77 9.63, 86.46 5.93, 102.02 0.37" stroke="#000000" stroke-width="1" fill="none"></path></g><g transform="translate(850.1210819324463 1964.4047619047608) rotate(0 49.83813065815718 0.4228146662749346)"><path d="M74.44 -10.89 C81.16 -4.43, 89.45 -1.97, 101.32 2.38 M73.13 -9.54 C78.89 -6.13, 86.52 -5.07, 102.02 0.37" stroke="#000000" stroke-width="1" fill="none"></path></g></g><g transform="translate(965.5377485991132 1948.9880952380943) rotate(0 212.5 18.5)"><text x="0" y="26" font-family="Virgil, Segoe UI Emoji" font-size="29.77777777777778px" fill="#2b8a3e" text-anchor="start" style="white-space: pre;" direction="ltr">RELACIONAR COM CLIENTE</text></g><g stroke-linecap="round" transform="translate(417.1964787578438 2281.310515873013) rotate(0 148 67.5)"><path d="M-0.99 0.05 C72.48 -2.94, 145.36 -1.48, 295.04 0.62 M0.16 0.23 C77.35 1.52, 155.79 0.87, 295.78 -0.6 M294.79 1.16 C295.99 27.42, 294.98 55.91, 295.36 135.64 M295.8 -0.05 C296.1 42.32, 297.09 85.65, 295.75 134.25 M296.29 134.53 C222.01 137.26, 144.58 137.12, -0.83 135.76 M296.28 134.69 C232.45 133.94, 167.87 133.43, 0.2 134.96 M1.89 133.01 C0.75 85.74, -0.34 37.93, -1.37 0.33 M-0.97 135.35 C0.78 87.39, 1.42 38.17, 0.62 0.98" stroke="#000000" stroke-width="1" fill="none"></path></g><g transform="translate(446.11266923403514 2318.0724206349187) rotate(0 120 32.5)"><text x="0" y="46" font-family="Virgil, Segoe UI Emoji" font-size="51.51044776119404px" fill="#045b23" text-anchor="start" style="white-space: pre;" direction="ltr">Favoritos</text></g><g stroke-linecap="round"><g transform="translate(856.9742565356221 2226.866071428569) rotate(0 0.5572249747958722 110.17564725511811)"><path d="M0.04 -0.18 C-0.09 36.64, 0.02 183.56, 0.25 220.17 M-1.4 -1.33 C-1.24 35.77, 2.14 184.73, 2.51 221.68" stroke="#000000" stroke-width="1" fill="none"></path></g></g><g stroke-linecap="round"><g transform="translate(713.0853676467325 2345.1994047619028) rotate(0 71.8809275656173 -0.7185656603384416)"><path d="M-0.18 -0.86 C24.2 -1, 121.34 -0.83, 145.5 -0.79 M-1.74 1.3 C22.55 0.78, 119.69 -2.08, 144.53 -2.74" stroke="#000000" stroke-width="1" fill="none"></path></g></g><g stroke-linecap="round"><g transform="translate(855.8631454245108 2227.97718253968) rotate(0 51.95407746305892 -0.428177896621591)"><path d="M-0.86 -0.05 C16.59 -0.17, 87.13 -0.78, 104.77 -0.86 M0.89 -1.13 C18.21 -1.09, 86.73 -0.01, 103.99 0.27" stroke="#000000" stroke-width="1" fill="none"></path></g><g transform="translate(855.8631454245108 2227.97718253968) rotate(0 51.95407746305892 -0.428177896621591)"><path d="M75.55 10.63 C82.96 8.15, 92.12 5.02, 102.77 0.71 M75.58 9.46 C84.79 5.96, 93.57 4.21, 103.32 -0.33" stroke="#000000" stroke-width="1" fill="none"></path></g><g transform="translate(855.8631454245108 2227.97718253968) rotate(0 51.95407746305892 -0.428177896621591)"><path d="M75.87 -9.89 C83.15 -6.14, 92.22 -3.05, 102.77 0.71 M75.9 -11.06 C84.85 -7.77, 93.52 -2.74, 103.32 -0.33" stroke="#000000" stroke-width="1" fill="none"></path></g></g><g stroke-linecap="round"><g transform="translate(856.0853676467325 2342.1994047619028) rotate(0 49.992511809654275 -0.4852638685072179)"><path d="M-0.05 0.32 C16.51 0.54, 82.62 0.43, 99.22 0.43 M-1.54 -0.55 C15.43 -0.62, 84.84 -1.22, 101.53 -1.43" stroke="#000000" stroke-width="1" fill="none"></path></g><g transform="translate(856.0853676467325 2342.1994047619028) rotate(0 49.992511809654275 -0.4852638685072179)"><path d="M73.98 7.82 C82.35 5.39, 90.19 1.91, 101.97 -0.81 M72.81 8.82 C78.87 5.89, 86.62 3.77, 100.92 -0.84" stroke="#000000" stroke-width="1" fill="none"></path></g><g transform="translate(856.0853676467325 2342.1994047619028) rotate(0 49.992511809654275 -0.4852638685072179)"><path d="M73.77 -12.7 C82.06 -9.29, 89.95 -6.93, 101.97 -0.81 M72.61 -11.7 C78.76 -10.05, 86.56 -7.6, 100.92 -0.84" stroke="#000000" stroke-width="1" fill="none"></path></g></g><g transform="translate(973.6409232022891 2208.97718253968) rotate(0 29 18.5)"><text x="0" y="26" font-family="Virgil, Segoe UI Emoji" font-size="29.77777777777778px" fill="#000000" text-anchor="start" style="white-space: pre;" direction="ltr">CPF</text></g><g transform="translate(968.1409232022891 2323.5882936507915) rotate(0 36.5 18.5)"><text x="0" y="26" font-family="Virgil, Segoe UI Emoji" font-size="29.77777777777778px" fill="#000000" text-anchor="start" style="white-space: pre;" direction="ltr">Nome</text></g><g stroke-linecap="round"><g transform="translate(857.8075898689551 2447.6299603174584) rotate(0 49.86136654625648 -0.6490216305948593)"><path d="M0.51 -0.44 C17.19 -0.43, 83.78 -0.87, 100.41 -0.73 M-0.69 -1.72 C15.84 -1.5, 82.96 0.43, 99.68 0.42" stroke="#000000" stroke-width="1" fill="none"></path></g><g transform="translate(857.8075898689551 2447.6299603174584) rotate(0 49.86136654625648 -0.6490216305948593)"><path d="M70.59 10.91 C79.44 7.34, 90.54 2.16, 100.19 0.29 M70.44 10.91 C77.42 7.53, 85.4 5.33, 99.16 -0.55" stroke="#000000" stroke-width="1" fill="none"></path></g><g transform="translate(857.8075898689551 2447.6299603174584) rotate(0 49.86136654625648 -0.6490216305948593)"><path d="M70.92 -9.61 C79.53 -6.46, 90.53 -4.95, 100.19 0.29 M70.77 -9.61 C77.61 -8.12, 85.51 -5.45, 99.16 -0.55" stroke="#000000" stroke-width="1" fill="none"></path></g></g><g transform="translate(973.2242565356212 2432.2132936507915) rotate(0 212.5 18.5)"><text x="0" y="26" font-family="Virgil, Segoe UI Emoji" font-size="29.77777777777778px" fill="#2b8a3e" text-anchor="start" style="white-space: pre;" direction="ltr">RELACIONAR COM CLIENTE</text></g><g stroke-linecap="round" transform="translate(2296.514094352442 166.57141950780897) rotate(0 148 67.5)"><path d="M0.97 -1.19 C84.53 0.87, 169.93 0.68, 295.11 0.57 M0.71 -0.6 C73.15 -1.76, 146.15 -2.02, 296.15 -0.45 M294.85 1.41 C297.04 41.59, 293.79 79.6, 295.55 134.23 M296.19 -0.52 C296.62 48.76, 296.59 98.32, 296.22 134.38 M294.69 134.47 C183.39 132.99, 71.9 133.14, 0.42 135.87 M296.29 135.67 C210.25 134.83, 124.02 135.29, -0.22 134.68 M0.2 134.71 C1.69 92.44, -0.28 53.13, -1.57 -1.58 M-0.23 135.68 C-0.5 97.29, -1.25 57.91, -0.31 0.12" stroke="#000000" stroke-width="1" fill="none"></path></g><g transform="translate(2355.9540943524426 201.57141950780897) rotate(0 75.5 32.5)"><text x="0" y="46" font-family="Virgil, Segoe UI Emoji" font-size="51.51044776119404px" fill="#c92a2a" text-anchor="start" style="white-space: pre;" direction="ltr">Conta</text></g><g stroke-linecap="round"><g transform="translate(2737.9585387968873 40.460308396697656) rotate(0 -0.1099469289292756 191.63917021923805)"><path d="M-0.96 -0.33 C-0.72 63.42, 0.46 319.46, 0.71 383.26 M0.73 -1.55 C0.85 62.34, -0.24 320.66, -0.45 384.82" stroke="#000000" stroke-width="1" fill="none"></path></g></g><g stroke-linecap="round"><g transform="translate(2592.4029832413307 230.46030839669766) rotate(0 72.63492430576844 -1.0355029165331189)"><path d="M-0.33 -0.4 C23.81 -0.52, 121.4 -1.63, 145.6 -1.67 M1.7 -1.66 C25.61 -1.53, 120.4 -0.24, 144.67 -0.43" stroke="#000000" stroke-width="1" fill="none"></path></g></g><g stroke-linecap="round"><g transform="translate(2736.847427685776 41.57141950780897) rotate(0 51.742274861244596 -0.30838553468072405)"><path d="M-0.4 0.04 C17.07 -0.04, 86.33 -0.67, 103.88 -0.79 M1.59 -0.98 C18.94 -0.89, 85.51 0.15, 102.64 0.36" stroke="#000000" stroke-width="1" fill="none"></path></g><g transform="translate(2736.847427685776 41.57141950780897) rotate(0 51.742274861244596 -0.30838553468072405)"><path d="M74.38 9.3 C79.36 8.92, 85.75 6.06, 104.38 2.29 M73.45 10.07 C80.76 7.4, 86.72 5.38, 101.8 -0.21" stroke="#000000" stroke-width="1" fill="none"></path></g><g transform="translate(2736.847427685776 41.57141950780897) rotate(0 51.742274861244596 -0.30838553468072405)"><path d="M74.67 -11.22 C79.53 -7.09, 85.86 -5.44, 104.38 2.29 M73.74 -10.45 C80.91 -8.61, 86.82 -6.14, 101.8 -0.21" stroke="#000000" stroke-width="1" fill="none"></path></g></g><g stroke-linecap="round"><g transform="translate(2737.9585387968873 351.5714195078092) rotate(0 50.10933874029661 0.17033286016430793)"><path d="M0.04 -0.56 C16.64 -0.42, 82.72 0.36, 99.28 0.46 M-1.39 1.76 C15.62 1.57, 85 -1.36, 101.61 -1.42" stroke="#000000" stroke-width="1" fill="none"></path></g><g transform="translate(2737.9585387968873 351.5714195078092) rotate(0 50.10933874029661 0.17033286016430793)"><path d="M72.76 8.36 C82.11 5.52, 89.03 5.3, 103.54 -3.03 M73.54 9.76 C80.53 6.81, 88.14 3.09, 101.04 -0.72" stroke="#000000" stroke-width="1" fill="none"></path></g><g transform="translate(2737.9585387968873 351.5714195078092) rotate(0 50.10933874029661 0.17033286016430793)"><path d="M72.23 -12.15 C81.66 -9.4, 88.73 -4.02, 103.54 -3.03 M73.01 -10.75 C80.19 -8.21, 87.93 -6.45, 101.04 -0.72" stroke="#000000" stroke-width="1" fill="none"></path></g></g><g stroke-linecap="round"><g transform="translate(2739.069649907997 270.46030839669766) rotate(0 49.95044079162176 0.3462720277243534)"><path d="M-0.56 -0.72 C16.25 -0.83, 83.69 -0.92, 100.46 -0.62 M1.35 1.52 C18.07 1.55, 83.43 0.96, 99.75 0.58" stroke="#000000" stroke-width="1" fill="none"></path></g><g transform="translate(2739.069649907997 270.46030839669766) rotate(0 49.95044079162176 0.3462720277243534)"><path d="M70.52 12.03 C78.15 8.62, 88.41 7.63, 98.14 -0.07 M71.92 10.66 C80.72 7.42, 88.9 3.9, 100.46 1.42" stroke="#000000" stroke-width="1" fill="none"></path></g><g transform="translate(2739.069649907997 270.46030839669766) rotate(0 49.95044079162176 0.3462720277243534)"><path d="M70.21 -8.49 C77.93 -6.42, 88.27 -1.95, 98.14 -0.07 M71.61 -9.86 C80.34 -6.53, 88.61 -3.49, 100.46 1.42" stroke="#000000" stroke-width="1" fill="none"></path></g></g><g stroke-linecap="round"><g transform="translate(2737.9585387968873 196.0158639522533) rotate(0 50.51947928613049 0.6330692156706164)"><path d="M-0.72 0.46 C15.83 0.56, 82.41 -0.07, 99.38 0.05 M1.1 -0.34 C18.05 0.02, 85.14 1.65, 101.76 1.61" stroke="#000000" stroke-width="1" fill="none"></path></g><g transform="translate(2737.9585387968873 196.0158639522533) rotate(0 50.51947928613049 0.6330692156706164)"><path d="M74.21 10.46 C82.16 10.41, 92.61 4.05, 101.11 2 M72.83 11.45 C79.05 8.49, 85.01 7.91, 102.6 2.53" stroke="#000000" stroke-width="1" fill="none"></path></g><g transform="translate(2737.9585387968873 196.0158639522533) rotate(0 50.51947928613049 0.6330692156706164)"><path d="M74.47 -10.06 C82.25 -3.88, 92.61 -4.01, 101.11 2 M73.1 -9.07 C79.23 -7.64, 85.13 -3.82, 102.6 2.53" stroke="#000000" stroke-width="1" fill="none"></path></g></g><g stroke-linecap="round"><g transform="translate(2739.069649907997 123.7936417300316) rotate(0 49.64498193482871 0.5188601488215454)"><path d="M0.46 -0.62 C17.23 -0.34, 83.26 1.04, 100.05 0.98 M-0.76 1.66 C15.91 1.69, 82.16 -0.28, 99.12 -0.6" stroke="#000000" stroke-width="1" fill="none"></path></g><g transform="translate(2739.069649907997 123.7936417300316) rotate(0 49.64498193482871 0.5188601488215454)"><path d="M70.15 10.43 C80.07 9.39, 83.8 4.04, 99.52 -2.32 M71.14 9.88 C78.26 6.83, 87.74 5.13, 100.04 -1.39" stroke="#000000" stroke-width="1" fill="none"></path></g><g transform="translate(2739.069649907997 123.7936417300316) rotate(0 49.64498193482871 0.5188601488215454)"><path d="M69.65 -10.09 C79.58 -5.92, 83.43 -6.08, 99.52 -2.32 M70.64 -10.64 C77.95 -7.85, 87.56 -3.72, 100.04 -1.39" stroke="#000000" stroke-width="1" fill="none"></path></g></g><g transform="translate(2854.6252054635534 22.57141950780897) rotate(0 40.5 18.5)"><text x="0" y="26" font-family="Virgil, Segoe UI Emoji" font-size="29.77777777777778px" fill="#000000" text-anchor="start" style="white-space: pre;" direction="ltr">Saldo</text></g><g transform="translate(2851.1252054635534 105.18253061892028) rotate(0 50 18.5)"><text x="0" y="26" font-family="Virgil, Segoe UI Emoji" font-size="29.77777777777778px" fill="#000000" text-anchor="start" style="white-space: pre;" direction="ltr">Salário</text></g><g transform="translate(2853.7363165746647 181.96030839669766) rotate(0 51 18.5)"><text x="0" y="26" font-family="Virgil, Segoe UI Emoji" font-size="29.77777777777778px" fill="#000000" text-anchor="start" style="white-space: pre;" direction="ltr">Número</text></g><g transform="translate(2852.1252054635534 253.07141950780897) rotate(0 56 18.5)"><text x="0" y="26" font-family="Virgil, Segoe UI Emoji" font-size="29.77777777777778px" fill="#000000" text-anchor="start" style="white-space: pre;" direction="ltr">Agência</text></g><g transform="translate(2853.2363165746647 334.18253061892005) rotate(0 267.5 18.5)"><text x="0" y="26" font-family="Virgil, Segoe UI Emoji" font-size="29.77777777777778px" fill="#000000" text-anchor="start" style="white-space: pre;" direction="ltr">Tipo (corrente, poupança ou salário)</text></g><g stroke-linecap="round"><g transform="translate(2737.073618161967 425.45634014273014) rotate(0 50.09232391978617 0.14597955574276966)"><path d="M0.59 0.38 C17.57 0.62, 84.17 0.9, 100.74 0.96 M-0.55 -0.46 C16.43 -0.5, 83.55 -0.54, 100.18 -0.66" stroke="#000000" stroke-width="1" fill="none"></path></g><g transform="translate(2737.073618161967 425.45634014273014) rotate(0 50.09232391978617 0.14597955574276966)"><path d="M72.66 10.93 C79.47 7.41, 84.91 5.1, 98.74 -1.16 M72.78 8.96 C78.78 6.29, 86.45 5.13, 99.61 -0.11" stroke="#000000" stroke-width="1" fill="none"></path></g><g transform="translate(2737.073618161967 425.45634014273014) rotate(0 50.09232391978617 0.14597955574276966)"><path d="M72.59 -9.59 C79.33 -8.88, 84.78 -6.95, 98.74 -1.16 M72.7 -11.56 C78.6 -9.28, 86.29 -5.5, 99.61 -0.11" stroke="#000000" stroke-width="1" fill="none"></path></g></g><g transform="translate(2852.351395939744 408.06745125384145) rotate(0 212.5 18.5)"><text x="0" y="26" font-family="Virgil, Segoe UI Emoji" font-size="29.77777777777778px" fill="#2b8a3e" text-anchor="start" style="white-space: pre;" direction="ltr">RELACIONAR COM CLIENTE</text></g><g stroke-linecap="round" transform="translate(2293.3633007016506 723.2876893490788) rotate(0 148 67.5)"><path d="M0.54 -1.43 C70.47 1.15, 138.37 2.71, 297.13 0.58 M-0.63 0.24 C83.28 0.45, 164.82 1.11, 296.19 -0.11 M295.45 -1.88 C296.08 42.35, 295.44 82.85, 297.98 136.35 M296.19 -0.54 C297.13 37.01, 296.71 74.67, 296.34 134.35 M297.29 134.13 C183.15 134.23, 71.77 133.07, 1.11 134.04 M295.28 134.53 C211.22 135.9, 126.55 136.76, -0.54 135.41 M-1.67 134.57 C-1.88 90.27, -1.71 43.72, 0.31 -0.66 M0.53 135.36 C0.16 87.06, -0.47 39.82, -0.86 0.47" stroke="#000000" stroke-width="1" fill="none"></path></g><g transform="translate(2318.803300701651 760.2876893490788) rotate(0 123.00000000000017 28.758992805755383)"><text x="0" y="40.51798561151085" font-family="Virgil, Segoe UI Emoji" font-size="45.581187587243704px" fill="#000000" text-anchor="start" style="white-space: pre;" direction="ltr">Empréstimo</text></g><g stroke-linecap="round"><g transform="translate(2734.807745146096 597.1765782379678) rotate(0 -0.2202685594970717 191.54308874922913)"><path d="M-1.16 0.56 C-0.89 64.19, 0.2 318.32, 0.72 382.25 M0.43 -0.2 C0.58 63.52, -0.64 319.54, -0.43 383.28" stroke="#000000" stroke-width="1" fill="none"></path></g></g><g stroke-linecap="round"><g transform="translate(2589.2521895905393 787.1765782379678) rotate(0 73.09025266647126 -1.0608217049242512)"><path d="M0.56 -0.39 C24.58 -0.24, 120.27 -0.19, 144.59 -0.24 M-0.61 -1.64 C23.74 -1.71, 122.33 -1.72, 146.79 -1.9" stroke="#000000" stroke-width="1" fill="none"></path></g></g><g stroke-linecap="round"><g transform="translate(2733.6966340349845 598.2876893490788) rotate(0 52.464478925822505 0.08595595071085427)"><path d="M-0.39 -0.97 C17.36 -0.92, 87.77 0.73, 105.32 0.84 M1.61 1.14 C19.37 0.81, 87.7 -0.76, 104.83 -0.8" stroke="#000000" stroke-width="1" fill="none"></path></g><g transform="translate(2733.6966340349845 598.2876893490788) rotate(0 52.464478925822505 0.08595595071085427)"><path d="M75.18 11.31 C83.96 8.56, 87.72 6.82, 104.33 -2.51 M75.95 10.62 C86.3 6.19, 95.49 2.64, 104.93 -1.08" stroke="#000000" stroke-width="1" fill="none"></path></g><g transform="translate(2733.6966340349845 598.2876893490788) rotate(0 52.464478925822505 0.08595595071085427)"><path d="M74.88 -9.2 C83.82 -7.79, 87.64 -5.36, 104.33 -2.51 M75.66 -9.9 C86.26 -7.49, 95.54 -4.21, 104.93 -1.08" stroke="#000000" stroke-width="1" fill="none"></path></g></g><g stroke-linecap="round"><g transform="translate(2734.807745146096 908.2876893490788) rotate(0 49.973339489474824 -0.25598092556469965)"><path d="M-0.97 0.87 C15.76 1.02, 84.13 0.49, 100.91 0.47 M0.73 0.29 C17.33 0.1, 84.09 -1.16, 100.45 -1.41" stroke="#000000" stroke-width="1" fill="none"></path></g><g transform="translate(2734.807745146096 908.2876893490788) rotate(0 49.973339489474824 -0.25598092556469965)"><path d="M73.89 10.86 C82.95 5.43, 93.07 1.62, 98.75 -0.75 M73.2 9.59 C82.82 5.63, 93.34 1.6, 100.17 -2.35" stroke="#000000" stroke-width="1" fill="none"></path></g><g transform="translate(2734.807745146096 908.2876893490788) rotate(0 49.973339489474824 -0.25598092556469965)"><path d="M73.54 -9.66 C82.65 -7.98, 92.9 -4.68, 98.75 -0.75 M72.84 -10.93 C82.57 -7.18, 93.22 -3.51, 100.17 -2.35" stroke="#000000" stroke-width="1" fill="none"></path></g></g><g stroke-linecap="round"><g transform="translate(2735.9188562572053 827.1765782379678) rotate(0 50.17041331028565 0.4575775855221309)"><path d="M0.87 0.91 C17.68 1.03, 83.83 -0.04, 100.47 -0.25 M-0.13 0.35 C16.6 0.74, 83.02 1.08, 99.76 1.16" stroke="#000000" stroke-width="1" fill="none"></path></g><g transform="translate(2735.9188562572053 827.1765782379678) rotate(0 50.17041331028565 0.4575775855221309)"><path d="M73.04 12.05 C78.74 9.56, 86.22 3.95, 100.43 2.67 M71.77 11.12 C79.81 8, 87.92 4.98, 98.82 1.3" stroke="#000000" stroke-width="1" fill="none"></path></g><g transform="translate(2735.9188562572053 827.1765782379678) rotate(0 50.17041331028565 0.4575775855221309)"><path d="M73.15 -8.47 C78.66 -5.47, 86.1 -5.59, 100.43 2.67 M71.88 -9.4 C79.72 -6.63, 87.8 -3.76, 98.82 1.3" stroke="#000000" stroke-width="1" fill="none"></path></g></g><g stroke-linecap="round"><g transform="translate(2734.807745146096 752.7321337935234) rotate(0 49.84413340698006 -0.11795975562915828)"><path d="M0.91 0.47 C17.7 0.44, 83.29 0.97, 99.75 0.72 M-0.07 -0.33 C16.63 -0.78, 82.2 -1.04, 98.68 -1.02" stroke="#000000" stroke-width="1" fill="none"></path></g><g transform="translate(2734.807745146096 752.7321337935234) rotate(0 49.84413340698006 -0.11795975562915828)"><path d="M71.29 8.89 C77.82 6.33, 81.09 5.22, 100.19 -1.28 M70.36 9.4 C76.38 7.1, 82.36 3.82, 98.82 -0.75" stroke="#000000" stroke-width="1" fill="none"></path></g><g transform="translate(2734.807745146096 752.7321337935234) rotate(0 49.84413340698006 -0.11795975562915828)"><path d="M71.24 -11.63 C77.93 -9.69, 81.22 -6.3, 100.19 -1.28 M70.31 -11.12 C76.5 -8.98, 82.49 -7.82, 98.82 -0.75" stroke="#000000" stroke-width="1" fill="none"></path></g></g><g stroke-linecap="round"><g transform="translate(2735.9188562572053 680.5099115713012) rotate(0 49.986920937802665 -0.2151066418427945)"><path d="M0.47 -0.25 C17.11 -0.46, 84.3 -0.48, 100.72 -0.39 M-0.75 -1.42 C15.72 -1.54, 83.14 1.06, 100.15 0.99" stroke="#000000" stroke-width="1" fill="none"></path></g><g transform="translate(2735.9188562572053 680.5099115713012) rotate(0 49.986920937802665 -0.2151066418427945)"><path d="M71.35 11.9 C81.78 5.27, 93.52 4.86, 99.89 -0.68 M71.86 10.55 C82.52 6.82, 92.16 3.58, 100.42 0.81" stroke="#000000" stroke-width="1" fill="none"></path></g><g transform="translate(2735.9188562572053 680.5099115713012) rotate(0 49.986920937802665 -0.2151066418427945)"><path d="M71.76 -8.62 C82.19 -7.6, 93.78 -0.35, 99.89 -0.68 M72.26 -9.97 C82.83 -5.98, 92.31 -1.5, 100.42 0.81" stroke="#000000" stroke-width="1" fill="none"></path></g></g><g transform="translate(2851.474411812762 579.2876893490788) rotate(0 37 18.5)"><text x="0" y="26" font-family="Virgil, Segoe UI Emoji" font-size="29.77777777777778px" fill="#000000" text-anchor="start" style="white-space: pre;" direction="ltr">Valor</text></g><g transform="translate(2850.585522923873 738.6765782379678) rotate(0 41.5 18.5)"><text x="0" y="26" font-family="Virgil, Segoe UI Emoji" font-size="29.77777777777778px" fill="#000000" text-anchor="start" style="white-space: pre;" direction="ltr">Juros</text></g><g transform="translate(2848.974411812762 809.7876893490788) rotate(0 61 18.5)"><text x="0" y="26" font-family="Virgil, Segoe UI Emoji" font-size="29.77777777777778px" fill="#000000" text-anchor="start" style="white-space: pre;" direction="ltr">Validade</text></g><g transform="translate(2850.085522923873 890.8988004601899) rotate(0 63 18.5)"><text x="0" y="26" font-family="Virgil, Segoe UI Emoji" font-size="29.77777777777778px" fill="#000000" text-anchor="start" style="white-space: pre;" direction="ltr">Condição</text></g><g stroke-linecap="round"><g transform="translate(2733.9228245111753 982.172609984) rotate(0 50.55393417228004 -0.22524380838706293)"><path d="M0.91 -0.15 C17.58 -0.07, 82.43 0.92, 99 0.92 M-0.08 -1.28 C17.05 -1.55, 84.56 -1.11, 101.18 -0.73" stroke="#000000" stroke-width="1" fill="none"></path></g><g transform="translate(2733.9228245111753 982.172609984) rotate(0 50.55393417228004 -0.22524380838706293)"><path d="M72.6 7.49 C80.44 7.32, 84.71 4.89, 100.88 -0.53 M73.13 8.98 C80.29 7.42, 89.08 3.49, 101.98 -1.18" stroke="#000000" stroke-width="1" fill="none"></path></g><g transform="translate(2733.9228245111753 982.172609984) rotate(0 50.55393417228004 -0.22524380838706293)"><path d="M72.87 -13.03 C80.72 -8.78, 84.93 -6.8, 100.88 -0.53 M73.4 -11.54 C80.3 -7.51, 89.01 -5.84, 101.98 -1.18" stroke="#000000" stroke-width="1" fill="none"></path></g></g><g transform="translate(2849.2006022889527 964.7837210951111) rotate(0 196 18.5)"><text x="0" y="26" font-family="Virgil, Segoe UI Emoji" font-size="29.77777777777778px" fill="#c92a2a" text-anchor="start" style="white-space: pre;" direction="ltr">RELACIONAR COM CONTA</text></g><g transform="translate(2847.9908384300757 664.7894372295468) rotate(0 41 18.5)"><text x="0" y="26" font-family="Virgil, Segoe UI Emoji" font-size="29.77777777777778px" fill="#000000" text-anchor="start" style="white-space: pre;" direction="ltr">Data</text></g><g stroke-linecap="round" transform="translate(2288.562771369052 1250.5988515344443) rotate(0 148 67.5)"><path d="M-0.13 -0.31 C83.12 -1.9, 163.94 -0.24, 296.03 -1.17 M0.14 0.64 C105.08 -2.04, 210.65 -1.19, 295.83 -0.28 M295.03 1.57 C297.32 41.95, 297.14 83.93, 295.01 133.01 M295.82 0.63 C297.59 53.28, 296.32 105.86, 296.62 135.56 M297.26 134.07 C184.46 135.49, 69.71 137.15, 0.42 134.8 M296.13 135.03 C225.87 136.96, 154.98 136.88, 0.62 135.4 M1.79 135.62 C0.63 85.5, -1.87 36.75, 0.49 -0.8 M-0.63 135.91 C-1.49 81.71, -0.7 27.88, 0.39 -0.66" stroke="#000000" stroke-width="1" fill="none"></path></g><g transform="translate(2340.5512940161398 1289.4951745806648) rotate(0 91 28.5)"><text x="0" y="40" font-family="Virgil, Segoe UI Emoji" font-size="45.581187587243704px" fill="#d9480f" text-anchor="start" style="white-space: pre;" direction="ltr">Cartões</text></g><g stroke-linecap="round"><g transform="translate(2730.007215813497 1124.4877404233334) rotate(0 0.7869180812449486 192.21602304604008)"><path d="M-0.25 1.17 C-0.25 65.14, 0.44 320.01, 0.85 383.69 M1.82 0.74 C1.56 64.35, -0.27 317.85, -0.24 381.82" stroke="#000000" stroke-width="1" fill="none"></path></g></g><g stroke-linecap="round"><g transform="translate(2584.4516602579406 1314.4877404233334) rotate(0 73.17592232070655 -0.7813856324100925)"><path d="M1.17 -0.26 C25.52 -0.23, 121.96 0.27, 146.03 -0.03 M0.32 -1.45 C24.57 -1.7, 121.24 -1.62, 145.33 -1.59" stroke="#000000" stroke-width="1" fill="none"></path></g></g><g stroke-linecap="round"><g transform="translate(2728.896104702386 1125.5988515344443) rotate(0 52.629751591591344 0.5998854904460131)"><path d="M-0.26 0.47 C17.36 0.27, 88.23 -0.06, 105.52 -0.04 M1.8 -0.33 C19.38 0.19, 87.79 1.69, 105.14 1.51" stroke="#000000" stroke-width="1" fill="none"></path></g><g transform="translate(2728.896104702386 1125.5988515344443) rotate(0 52.629751591591344 0.5998854904460131)"><path d="M77.66 13.34 C84.71 7.21, 93.68 5.98, 106.38 1.89 M77.08 11.75 C87.58 7.56, 98.76 5.05, 104.42 1.02" stroke="#000000" stroke-width="1" fill="none"></path></g><g transform="translate(2728.896104702386 1125.5988515344443) rotate(0 52.629751591591344 0.5998854904460131)"><path d="M77.83 -7.18 C85.04 -7.58, 93.95 -3.07, 106.38 1.89 M77.25 -8.77 C87.64 -5.05, 98.76 0.37, 104.42 1.02" stroke="#000000" stroke-width="1" fill="none"></path></g></g><g stroke-linecap="round"><g transform="translate(2730.007215813497 1435.5988515344443) rotate(0 49.644586710240674 0.06444340087472256)"><path d="M0.47 1.08 C16.95 0.97, 83.33 -0.77, 100.03 -0.95 M-0.74 0.6 C15.48 0.63, 82.26 -0.03, 99.09 0.09" stroke="#000000" stroke-width="1" fill="none"></path></g><g transform="translate(2730.007215813497 1435.5988515344443) rotate(0 49.644586710240674 0.06444340087472256)"><path d="M72.73 10.47 C80.56 7.31, 93.33 3.33, 99.48 1.81 M71.15 10.19 C78.49 7.53, 87.69 3.89, 98.61 0.87" stroke="#000000" stroke-width="1" fill="none"></path></g><g transform="translate(2730.007215813497 1435.5988515344443) rotate(0 49.644586710240674 0.06444340087472256)"><path d="M72.68 -10.06 C80.49 -5.05, 93.27 -0.88, 99.48 1.81 M71.09 -10.33 C78.26 -7.28, 87.47 -5.21, 98.61 0.87" stroke="#000000" stroke-width="1" fill="none"></path></g></g><g stroke-linecap="round"><g transform="translate(2731.1183269246067 1354.4877404233334) rotate(0 50.72468408985071 -0.25804581432691975)"><path d="M1.08 0.03 C17.63 0.06, 82.56 0.55, 99.05 0.67 M0.19 -1 C17.13 -1.36, 84.76 -1.07, 101.26 -1.11" stroke="#000000" stroke-width="1" fill="none"></path></g><g transform="translate(2731.1183269246067 1354.4877404233334) rotate(0 50.72468408985071 -0.25804581432691975)"><path d="M73.11 7.54 C81.97 6.01, 89.93 3.56, 102.98 -1.54 M72.84 8.75 C78.9 7.94, 83.94 4.36, 102.05 -1.11" stroke="#000000" stroke-width="1" fill="none"></path></g><g transform="translate(2731.1183269246067 1354.4877404233334) rotate(0 50.72468408985071 -0.25804581432691975)"><path d="M73.13 -12.98 C82.07 -8.81, 90.02 -5.55, 102.98 -1.54 M72.86 -11.78 C78.96 -8.35, 84 -7.7, 102.05 -1.11" stroke="#000000" stroke-width="1" fill="none"></path></g></g><g stroke-linecap="round"><g transform="translate(2730.007215813497 1280.043295978889) rotate(0 49.62521613245826 0.2751707042608018)"><path d="M0.03 -0.95 C16.73 -1.13, 83.88 -0.2, 100.67 -0.01 M-1.42 1.16 C15.14 1.7, 83.11 1.44, 100.07 1.52" stroke="#000000" stroke-width="1" fill="none"></path></g><g transform="translate(2730.007215813497 1280.043295978889) rotate(0 49.62521613245826 0.2751707042608018)"><path d="M70.29 12.88 C81.34 9.52, 91.3 6.53, 99.63 -0.35 M71.5 11.82 C81.89 7.82, 89.47 6.04, 100.06 1.91" stroke="#000000" stroke-width="1" fill="none"></path></g><g transform="translate(2730.007215813497 1280.043295978889) rotate(0 49.62521613245826 0.2751707042608018)"><path d="M70.3 -7.64 C81.53 -4.04, 91.49 -0.06, 99.63 -0.35 M71.51 -8.7 C81.94 -6.11, 89.52 -1.3, 100.06 1.91" stroke="#000000" stroke-width="1" fill="none"></path></g></g><g stroke-linecap="round"><g transform="translate(2731.1183269246067 1207.821073756667) rotate(0 49.520347682014176 -0.1971136772566524)"><path d="M-0.95 0.67 C15.53 0.77, 83.13 0.6, 99.99 0.64 M0.75 -0.03 C16.98 -0.27, 82.57 -0.95, 99.04 -1.09" stroke="#000000" stroke-width="1" fill="none"></path></g><g transform="translate(2731.1183269246067 1207.821073756667) rotate(0 49.520347682014176 -0.1971136772566524)"><path d="M72.06 9.43 C83.13 5.93, 94.57 1.01, 97.16 -0.67 M71 10.43 C79.28 5.67, 89.82 2.77, 99.43 -1.19" stroke="#000000" stroke-width="1" fill="none"></path></g><g transform="translate(2731.1183269246067 1207.821073756667) rotate(0 49.520347682014176 -0.1971136772566524)"><path d="M71.86 -11.1 C83.02 -6.58, 94.54 -3.5, 97.16 -0.67 M70.8 -10.09 C79.1 -8.25, 89.7 -4.56, 99.43 -1.19" stroke="#000000" stroke-width="1" fill="none"></path></g></g><g transform="translate(2846.6738824801632 1106.5988515344443) rotate(0 51 18.5)"><text x="0" y="26" font-family="Virgil, Segoe UI Emoji" font-size="29.77777777777778px" fill="#000000" text-anchor="start" style="white-space: pre;" direction="ltr">Número</text></g><g transform="translate(2845.7849935912745 1265.9877404233334) rotate(0 132 18.5)"><text x="0" y="26" font-family="Virgil, Segoe UI Emoji" font-size="29.77777777777778px" fill="#000000" text-anchor="start" style="white-space: pre;" direction="ltr">Data de Validade</text></g><g transform="translate(2844.1738824801632 1337.0988515344443) rotate(0 184 18.5)"><text x="0" y="26" font-family="Virgil, Segoe UI Emoji" font-size="29.77777777777778px" fill="#000000" text-anchor="start" style="white-space: pre;" direction="ltr">Tipo (Débito ou Crédito)</text></g><g transform="translate(2845.2849935912745 1418.2099626455556) rotate(0 224 18.5)"><text x="0" y="26" font-family="Virgil, Segoe UI Emoji" font-size="29.77777777777778px" fill="#000000" text-anchor="start" style="white-space: pre;" direction="ltr">Estado (Bloqueado ou Aceito)</text></g><g stroke-linecap="round"><g transform="translate(2729.1222951785767 1509.4837721693657) rotate(0 50.55384620208292 -0.8353403915522506)"><path d="M1.03 -0.26 C17.39 -0.26, 82.34 0.25, 98.87 0.25 M0.11 -1.44 C16.76 -1.84, 84.41 -2.13, 100.99 -1.74" stroke="#000000" stroke-width="1" fill="none"></path></g><g transform="translate(2729.1222951785767 1509.4837721693657) rotate(0 50.55384620208292 -0.8353403915522506)"><path d="M72.3 6.45 C83.35 4.87, 92.7 0.05, 101.09 0.24 M72.73 8.71 C79.12 6.6, 85.16 2.52, 101.91 -1" stroke="#000000" stroke-width="1" fill="none"></path></g><g transform="translate(2729.1222951785767 1509.4837721693657) rotate(0 50.55384620208292 -0.8353403915522506)"><path d="M72.44 -14.07 C83.49 -8.23, 92.78 -5.63, 101.09 0.24 M72.87 -11.81 C79.14 -9.25, 85.14 -8.65, 101.91 -1" stroke="#000000" stroke-width="1" fill="none"></path></g></g><g transform="translate(2844.400072956354 1492.094883280477) rotate(0 196 18.5)"><text x="0" y="26" font-family="Virgil, Segoe UI Emoji" font-size="29.77777777777778px" fill="#c92a2a" text-anchor="start" style="white-space: pre;" direction="ltr">RELACIONAR COM CONTA</text></g><g transform="translate(2843.1903090974765 1192.1005994149127) rotate(0 26 18.5)"><text x="0" y="26" font-family="Virgil, Segoe UI Emoji" font-size="29.77777777777778px" fill="#000000" text-anchor="start" style="white-space: pre;" direction="ltr">CVV</text></g><g stroke-linecap="round" transform="translate(2290.15279506369 1807.1051759911527) rotate(0 148 67.5)"><path d="M-0.11 -0.57 C63.05 2.78, 123.95 1.03, 296.12 0.83 M0.29 0.54 C66.68 -0.75, 135.03 -0.33, 295.69 0.32 M296.24 -1.79 C295.69 48.54, 294.29 96.19, 296.48 134.6 M296.11 0.36 C297.15 46.56, 296.69 92.32, 296.92 135.18 M294.85 136.02 C227.43 133.98, 158.65 134.93, 0.6 134.85 M296.22 134.68 C214.22 133.72, 133.47 133.73, -0.25 135.55 M1.03 135.62 C-0.96 104.39, -1.44 69.52, 1.67 -0.76 M0.52 135.02 C0.11 104.55, -1.74 75.28, 0.93 0.68" stroke="#000000" stroke-width="1" fill="none"></path></g><g transform="translate(2342.141317710778 1846.0014990373732) rotate(0 80 28.5)"><text x="0" y="40" font-family="Virgil, Segoe UI Emoji" font-size="45.581187587243704px" fill="#5f3dc4" text-anchor="start" style="white-space: pre;" direction="ltr">Fatura</text></g><g stroke-linecap="round"><g transform="translate(2729.1805988787296 1721.2714087034647) rotate(0 0.9086682438437492 154.4613078475501)"><path d="M-0.47 0.78 C0.04 52.02, 2.06 256.19, 2.28 307.33 M1.49 0.15 C2 51.58, 2.2 257.31, 1.95 308.78" stroke="#000000" stroke-width="1" fill="none"></path></g></g><g stroke-linecap="round"><g transform="translate(2586.0416839525788 1870.9940648800418) rotate(0 72.55585339468695 -0.09234659146102331)"><path d="M0.78 1.17 C25.03 1.02, 121.23 -1.09, 145.38 -1.36 M-0.27 0.74 C23.81 0.82, 120.14 0.58, 144.34 0.05" stroke="#000000" stroke-width="1" fill="none"></path></g></g><g stroke-linecap="round"><g transform="translate(2728.0694877676183 1722.3825198145755) rotate(0 52.26355865378139 0.14668484770447776)"><path d="M1.17 -0.18 C18.62 -0.3, 86.87 0.15, 104.2 0.02 M0.33 -1.31 C17.63 -1.3, 85.73 1.4, 103.12 1.61" stroke="#000000" stroke-width="1" fill="none"></path></g><g transform="translate(2728.0694877676183 1722.3825198145755) rotate(0 52.26355865378139 0.14668484770447776)"><path d="M74.37 10.69 C82.19 9.47, 88.01 5.95, 103.47 2.38 M75.32 11.17 C84.93 8.13, 96.49 3.59, 103.04 1.73" stroke="#000000" stroke-width="1" fill="none"></path></g><g transform="translate(2728.0694877676183 1722.3825198145755) rotate(0 52.26355865378139 0.14668484770447776)"><path d="M74.92 -9.82 C82.74 -5.68, 88.41 -3.84, 103.47 2.38 M75.88 -9.34 C85.11 -4.73, 96.47 -1.63, 103.04 1.73" stroke="#000000" stroke-width="1" fill="none"></path></g></g><g stroke-linecap="round"><g transform="translate(2728.863138561268 1923.5782649097962) rotate(0 50.21318828128278 -0.3465125002339491)"><path d="M-0.25 0.1 C16.34 -0.02, 83.96 -0.89, 100.67 -0.87 M1.83 -0.9 C18.21 -0.87, 83.83 -0.22, 100.08 0.21" stroke="#000000" stroke-width="1" fill="none"></path></g><g transform="translate(2728.863138561268 1923.5782649097962) rotate(0 50.21318828128278 -0.3465125002339491)"><path d="M71.88 11.12 C81.56 6.25, 94.63 3.04, 101.54 -1.39 M71.3 10.43 C79.28 6.95, 85.76 5.2, 99.18 0.44" stroke="#000000" stroke-width="1" fill="none"></path></g><g transform="translate(2728.863138561268 1923.5782649097962) rotate(0 50.21318828128278 -0.3465125002339491)"><path d="M72.22 -9.4 C81.73 -6.11, 94.67 -1.16, 101.54 -1.39 M71.64 -10.09 C79.67 -8.43, 86.06 -5.06, 99.18 0.44" stroke="#000000" stroke-width="1" fill="none"></path></g></g><g stroke-linecap="round"><g transform="translate(2727.752027450158 1822.541249973306) rotate(0 50.033984750341574 0.8128114428314746)"><path d="M0.1 0.67 C16.65 0.72, 82.44 0.09, 99.13 0.05 M-1.31 -0.02 C15.63 0.26, 84.57 1.89, 101.38 1.62" stroke="#000000" stroke-width="1" fill="none"></path></g><g transform="translate(2727.752027450158 1822.541249973306) rotate(0 50.033984750341574 0.8128114428314746)"><path d="M74.24 10.23 C81.29 9.13, 90.04 7.37, 99.79 0.62 M73.55 12.21 C82.88 8.04, 93.92 3.54, 101.62 2.06" stroke="#000000" stroke-width="1" fill="none"></path></g><g transform="translate(2727.752027450158 1822.541249973306) rotate(0 50.033984750341574 0.8128114428314746)"><path d="M74.38 -10.29 C81.35 -5.53, 90.06 -1.44, 99.79 0.62 M73.69 -8.31 C82.98 -4.97, 93.97 -1.96, 101.62 2.06" stroke="#000000" stroke-width="1" fill="none"></path></g></g><g transform="translate(2845.8472655453957 1703.3825198145755) rotate(0 37 18.5)"><text x="0" y="26" font-family="Virgil, Segoe UI Emoji" font-size="29.77777777777778px" fill="#000000" text-anchor="start" style="white-space: pre;" direction="ltr">Valor</text></g><g transform="translate(2843.5298052279354 1808.4856944177504) rotate(0 132 18.5)"><text x="0" y="26" font-family="Virgil, Segoe UI Emoji" font-size="29.77777777777778px" fill="#000000" text-anchor="start" style="white-space: pre;" direction="ltr">Data de Validade</text></g><g transform="translate(2841.9186941168246 1906.189376020907) rotate(0 142 18.5)"><text x="0" y="26" font-family="Virgil, Segoe UI Emoji" font-size="29.77777777777778px" fill="#000000" text-anchor="start" style="white-space: pre;" direction="ltr">Data que foi Pago</text></g><g stroke-linecap="round"><g transform="translate(2729.7242496723807 2026.267440449497) rotate(0 50.83635622872032 0.10110789184458646)"><path d="M0.87 -0.96 C17.41 -0.9, 82.87 0.72, 99.4 0.79 M-0.12 1.16 C16.79 0.83, 85.22 -0.81, 101.8 -0.91" stroke="#000000" stroke-width="1" fill="none"></path></g><g transform="translate(2729.7242496723807 2026.267440449497) rotate(0 50.83635622872032 0.10110789184458646)"><path d="M72.19 8.81 C83.95 6.33, 90.68 3.66, 102.86 -2.07 M74.02 10.25 C81.49 7.37, 90.39 3.59, 102.23 -0.36" stroke="#000000" stroke-width="1" fill="none"></path></g><g transform="translate(2729.7242496723807 2026.267440449497) rotate(0 50.83635622872032 0.10110789184458646)"><path d="M71.85 -11.71 C83.8 -7.68, 90.63 -3.84, 102.86 -2.07 M73.68 -10.26 C81.28 -7.15, 90.27 -4.93, 102.23 -0.36" stroke="#000000" stroke-width="1" fill="none"></path></g></g><g transform="translate(2845.002027450158 2008.8785515606082) rotate(0 215.5 18.5)"><text x="0" y="26" font-family="Virgil, Segoe UI Emoji" font-size="29.77777777777778px" fill="#d9480f" text-anchor="start" style="white-space: pre;" direction="ltr">RELACIONAR COM CARTÕES</text></g><g stroke-linecap="round" transform="translate(418.4567459235475 2728.1997639121446) rotate(0 148 67.5)"><path d="M-0.6 -1.4 C73.93 1.21, 147.33 1.21, 294.64 0.71 M0.21 -0.14 C70.5 0.23, 141.85 -0.06, 295.65 0.43 M295.09 -0.61 C295.96 27.12, 297.09 58.16, 297.72 135.62 M296.51 -0.24 C296.85 37.62, 296.08 73.93, 296.69 135.61 M294.71 135.83 C180.89 135.7, 68.24 136.49, 0.09 133.65 M296.3 134.29 C219.48 133.12, 142.79 133.17, -0.01 134.47 M0.53 134.12 C-2.37 100.58, -1.16 64.22, -1.8 -0.61 M0.05 135.6 C0.2 107.34, -0.71 78.78, 0.3 -0.89" stroke="#000000" stroke-width="1" fill="none"></path></g><g transform="translate(440.8400176082016 2771.071592723688) rotate(0 127.56176027604732 27.9175569627713)"><text x="0" y="38.8351139255426" font-family="Virgil, Segoe UI Emoji" font-size="44.247564909261236px" fill="#0b7285" text-anchor="start" style="white-space: pre;" direction="ltr">Transações</text></g><g stroke-linecap="round"><g transform="translate(858.2345237013258 2673.7553194677002) rotate(0 -0.17145515609934137 109.23757675730724)"><path d="M-1.13 -0.34 C-0.85 36.25, 0.47 182.52, 0.79 219.1 M0.47 -1.57 C0.64 35.17, -0.22 183.14, -0.33 220.05" stroke="#000000" stroke-width="1" fill="none"></path></g></g><g stroke-linecap="round"><g transform="translate(714.3456348124362 2792.0886528010333) rotate(0 73.104718241466 -0.7922384992706384)"><path d="M-0.34 -0.32 C23.81 -0.37, 120.3 -1.4, 144.43 -1.43 M1.68 -1.54 C26.22 -1.31, 122.37 0.11, 146.55 -0.06" stroke="#000000" stroke-width="1" fill="none"></path></g></g><g stroke-linecap="round"><g transform="translate(857.1234125902145 2674.8664305788116) rotate(0 51.90096282234617 -0.16081940463215005)"><path d="M-0.32 -1.12 C17.22 -1.26, 86.57 -1.23, 104.12 -1.18 M1.71 0.9 C19.17 0.9, 85.87 -0.09, 103.01 -0.22" stroke="#000000" stroke-width="1" fill="none"></path></g><g transform="translate(857.1234125902145 2674.8664305788116) rotate(0 51.90096282234617 -0.16081940463215005)"><path d="M73.06 9.83 C78.9 9.22, 85.28 7.67, 102.76 0.34 M75.64 9.91 C82.39 7.98, 89.89 5.16, 102.2 -0.67" stroke="#000000" stroke-width="1" fill="none"></path></g><g transform="translate(857.1234125902145 2674.8664305788116) rotate(0 51.90096282234617 -0.16081940463215005)"><path d="M72.83 -10.69 C78.66 -7.08, 85.09 -4.41, 102.76 0.34 M75.41 -10.61 C82.18 -6.76, 89.74 -3.81, 102.2 -0.67" stroke="#000000" stroke-width="1" fill="none"></path></g></g><g stroke-linecap="round"><g transform="translate(857.3456348124362 2789.0886528010333) rotate(0 49.95440236633624 -0.546504411847593)"><path d="M-1.12 -0.32 C15.42 -0.18, 82.17 0.3, 98.9 0.5 M0.49 -1.54 C17.41 -1.73, 84.15 -1.41, 101.03 -1.32" stroke="#000000" stroke-width="1" fill="none"></path></g><g transform="translate(857.3456348124362 2789.0886528010333) rotate(0 49.95440236633624 -0.546504411847593)"><path d="M72.26 6.97 C81.44 5.1, 89.72 3.33, 101.6 -1.69 M72.34 8.34 C81.22 4.92, 89.21 2.19, 100.58 -1.62" stroke="#000000" stroke-width="1" fill="none"></path></g><g transform="translate(857.3456348124362 2789.0886528010333) rotate(0 49.95440236633624 -0.546504411847593)"><path d="M72.36 -13.55 C81.46 -9.86, 89.71 -6.06, 101.6 -1.69 M72.44 -12.18 C81.28 -9.9, 89.24 -6.94, 100.58 -1.62" stroke="#000000" stroke-width="1" fill="none"></path></g></g><g transform="translate(974.9011903679927 2655.8664305788116) rotate(0 37 18.5)"><text x="0" y="26" font-family="Virgil, Segoe UI Emoji" font-size="29.77777777777778px" fill="#000000" text-anchor="start" style="white-space: pre;" direction="ltr">Valor</text></g><g transform="translate(969.4011903679927 2770.477541689923) rotate(0 41 18.5)"><text x="0" y="26" font-family="Virgil, Segoe UI Emoji" font-size="29.77777777777778px" fill="#000000" text-anchor="start" style="white-space: pre;" direction="ltr">Data</text></g><g stroke-linecap="round"><g transform="translate(859.0678570346588 2894.519208356589) rotate(0 50.18302007104268 0.46588464196508994)"><path d="M0.58 -0.74 C17.45 -0.58, 84.32 -0.24, 100.95 -0.15 M-0.58 1.49 C16.25 1.94, 83.78 1.4, 100.5 1.31" stroke="#000000" stroke-width="1" fill="none"></path></g><g transform="translate(859.0678570346588 2894.519208356589) rotate(0 50.18302007104268 0.46588464196508994)"><path d="M71.15 13.33 C79.9 9.32, 87.47 5.46, 100.38 2.73 M71.5 12.48 C78.78 8.47, 86.44 5.75, 99.71 1.36" stroke="#000000" stroke-width="1" fill="none"></path></g><g transform="translate(859.0678570346588 2894.519208356589) rotate(0 50.18302007104268 0.46588464196508994)"><path d="M71.02 -7.2 C79.62 -5.59, 87.22 -3.85, 100.38 2.73 M71.37 -8.04 C78.59 -6.82, 86.28 -4.32, 99.71 1.36" stroke="#000000" stroke-width="1" fill="none"></path></g></g><g transform="translate(974.4845237013249 2879.102541689923) rotate(0 212.5 18.5)"><text x="0" y="26" font-family="Virgil, Segoe UI Emoji" font-size="29.77777777777778px" fill="#2b8a3e" text-anchor="start" style="white-space: pre;" direction="ltr">RELACIONAR COM CLIENTE</text></g><g stroke-linecap="round"><g transform="translate(548.6040868515731 287.59731266256586) rotate(0 0.23143634390021361 145.49671784912243)"><path d="M0.61 -0.65 C0.41 47.57, -0.78 241.73, -0.89 290.07 M-0.53 1.62 C-0.38 49.98, 1.41 243.52, 1.35 291.64" stroke="#000000" stroke-width="1" fill="none"></path></g><g transform="translate(548.6040868515731 287.59731266256586) rotate(0 0.23143634390021361 145.49671784912243)"><path d="M-10.13 262.02 C-5.35 272.53, -3.11 280.43, 0.61 291.09 M-9.46 263.09 C-6.3 269.69, -4.36 277.9, 1.4 291.88" stroke="#000000" stroke-width="1" fill="none"></path></g><g transform="translate(548.6040868515731 287.59731266256586) rotate(0 0.23143634390021361 145.49671784912243)"><path d="M10.4 261.92 C8.47 272.57, 3.99 280.5, 0.61 291.09 M11.06 262.99 C9.34 269.55, 6.4 277.78, 1.4 291.88" stroke="#000000" stroke-width="1" fill="none"></path></g></g><g stroke-linecap="round"><g transform="translate(12.270753518240099 332.5973126625656) rotate(0 2.9193133425274027 1228.9387870219477)"><path d="M0.06 -0.01 C1.15 409.83, 6.24 2048.29, 7.21 2458.01 M-1.37 -1.06 C-0.45 408.98, 4.93 2048.9, 6.54 2458.94" stroke="#000000" stroke-width="1" fill="none"></path></g></g><g stroke-linecap="round"><g transform="translate(14.770753518240099 1034.9306459958987) rotate(0 193.6065130772255 -2.0872492461465413)"><path d="M1.06 -1.14 C65.66 -1.91, 322.49 -4.56, 387.06 -5.05 M0.15 0.87 C64.61 0.34, 321.2 -2.41, 385.88 -3.53" stroke="#000000" stroke-width="1" fill="none"></path></g><g transform="translate(14.770753518240099 1034.9306459958987) rotate(0 193.6065130772255 -2.0872492461465413)"><path d="M355.93 6.38 C364.88 5.84, 373.63 1.54, 385.93 -4.83 M357.29 7.8 C365.44 4.66, 373.12 1.62, 385.78 -4.09" stroke="#000000" stroke-width="1" fill="none"></path></g><g transform="translate(14.770753518240099 1034.9306459958987) rotate(0 193.6065130772255 -2.0872492461465413)"><path d="M355.65 -14.14 C364.6 -9.5, 373.42 -8.61, 385.93 -4.83 M357.01 -12.72 C365.37 -10.47, 373.12 -8.12, 385.78 -4.09" stroke="#000000" stroke-width="1" fill="none"></path></g></g><g stroke-linecap="round"><g transform="translate(14.770753518240099 1864.9306459958987) rotate(0 194.7107879117691 0.0833207364007933)"><path d="M0.49 0.12 C65.6 0.2, 325.13 -0.15, 390.13 -0.34 M-0.71 -0.86 C64.29 -0.53, 324.13 0.92, 389.25 1.02" stroke="#000000" stroke-width="1" fill="none"></path></g><g transform="translate(14.770753518240099 1864.9306459958987) rotate(0 194.7107879117691 0.0833207364007933)"><path d="M361.23 11.39 C367.81 9.3, 373.96 4.47, 387.73 1.15 M361.31 10.38 C367.66 9.92, 372.83 7.28, 388.71 0.16" stroke="#000000" stroke-width="1" fill="none"></path></g><g transform="translate(14.770753518240099 1864.9306459958987) rotate(0 194.7107879117691 0.0833207364007933)"><path d="M361.31 -9.13 C367.73 -5.93, 373.86 -5.47, 387.73 1.15 M361.39 -10.14 C367.58 -6.34, 372.74 -4.72, 388.71 0.16" stroke="#000000" stroke-width="1" fill="none"></path></g></g><g stroke-linecap="round"><g transform="translate(14.770753518240099 2339.930645995899) rotate(0 200.01715844268915 2.1243427674658335)"><path d="M0.29 1.17 C67.09 1.64, 334.39 2.04, 401.04 2.16 M-1.01 0.73 C65.69 1.44, 333.88 3.17, 400.64 3.52" stroke="#000000" stroke-width="1" fill="none"></path></g><g transform="translate(14.770753518240099 2339.930645995899) rotate(0 200.01715844268915 2.1243427674658335)"><path d="M374.33 15.35 C381.05 10.64, 389.71 5.05, 402.46 4.35 M371.55 13.41 C382.99 10.19, 393.89 6.86, 400.88 2.69" stroke="#000000" stroke-width="1" fill="none"></path></g><g transform="translate(14.770753518240099 2339.930645995899) rotate(0 200.01715844268915 2.1243427674658335)"><path d="M374.46 -5.17 C381.02 -3.22, 389.64 -2.15, 402.46 4.35 M371.67 -7.11 C383.06 -2.68, 393.91 1.64, 400.88 2.69" stroke="#000000" stroke-width="1" fill="none"></path></g></g><g stroke-linecap="round"><g transform="translate(400.6040868515727 225.76397932923214) rotate(0 -194.4973547978243 53.44426655972245)"><path d="M-0.39 0.09 C-56.8 1.47, -272.98 -9.17, -338.02 8.93 C-403.05 27.02, -382.12 92.25, -390.6 108.67 M1.61 -0.91 C-54.97 0.59, -273.82 -7.58, -338.8 10.34 C-403.78 28.26, -380.01 90.3, -388.27 106.6" stroke="#000000" stroke-width="1" fill="none"></path></g></g><g stroke-linecap="round"><g transform="translate(16.341861387508516 2784.6772994560188) rotate(0 199.58399631516852 1.5625109976779186)"><path d="M-0.53 -0.8 C66.12 -0.3, 333.24 3.25, 399.7 3.93 M1.39 1.39 C67.99 1.46, 333.33 1.59, 399.3 2.12" stroke="#000000" stroke-width="1" fill="none"></path></g><g transform="translate(16.341861387508516 2784.6772994560188) rotate(0 199.58399631516852 1.5625109976779186)"><path d="M369.73 14.03 C379.99 8.78, 386.9 6.3, 398.06 2.25 M370.44 11.57 C381.2 8.24, 391.39 5.68, 399.7 1.22" stroke="#000000" stroke-width="1" fill="none"></path></g><g transform="translate(16.341861387508516 2784.6772994560188) rotate(0 199.58399631516852 1.5625109976779186)"><path d="M369.81 -6.5 C380.2 -5.93, 387.09 -2.59, 398.06 2.25 M370.51 -8.95 C381.43 -4.98, 391.6 -0.23, 399.7 1.22" stroke="#000000" stroke-width="1" fill="none"></path></g></g><g stroke-linecap="round"><g transform="translate(1917.4244342888126 227.7920942578321) rotate(0 6.047488144412654 541.1149945400842)"><path d="M-0.33 0.3 C1.7 180.66, 10.14 901.5, 12.43 1081.7 M1.7 -0.59 C3.54 179.94, 9.54 902.34, 11.44 1082.82" stroke="#000000" stroke-width="1" fill="none"></path></g></g><g stroke-linecap="round"><g transform="translate(2292.4244342888123 230.2920942578321) rotate(0 -188.75252878330645 0.867444512963857)"><path d="M1.17 -0.64 C-61.82 -0.4, -315.47 0.76, -378.68 1.41 M0.33 1.64 C-62.25 1.99, -313.34 2.43, -376.59 2.37" stroke="#000000" stroke-width="1" fill="none"></path></g></g><g stroke-linecap="round"><g transform="translate(1924.9244342888126 1305.292094257832) rotate(0 179.0519615714811 1.9403455922939088)"><path d="M-0.56 1.13 C58.68 1.48, 296.72 2.8, 356.49 3.2 M1.35 0.68 C60.86 1.19, 299.3 1.28, 358.66 1.44" stroke="#000000" stroke-width="1" fill="none"></path></g><g transform="translate(1924.9244342888126 1305.292094257832) rotate(0 179.0519615714811 1.9403455922939088)"><path d="M332.35 9.97 C342.42 8.71, 353.8 3.15, 359.99 2.76 M330.18 12.05 C341.02 6.96, 350.78 5.04, 358.61 0.46" stroke="#000000" stroke-width="1" fill="none"></path></g><g transform="translate(1924.9244342888126 1305.292094257832) rotate(0 179.0519615714811 1.9403455922939088)"><path d="M332.38 -10.55 C342.63 -3.89, 354 -1.51, 359.99 2.76 M330.21 -8.47 C341.07 -6.37, 350.83 -1.1, 358.61 0.46" stroke="#000000" stroke-width="1" fill="none"></path></g></g><g stroke-linecap="round"><g transform="translate(1924.9244342888126 782.7920942578321) rotate(0 180.87400447292254 0.2599124436266038)"><path d="M-0.19 0.06 C59.97 0.21, 301.01 0.01, 361.38 -0.04 M-1.75 -0.96 C58.72 -0.52, 303.04 1.16, 363.5 1.48" stroke="#000000" stroke-width="1" fill="none"></path></g><g transform="translate(1924.9244342888126 782.7920942578321) rotate(0 180.87400447292254 0.2599124436266038)"><path d="M335.34 9.69 C344.74 7.43, 353.92 4.18, 362.43 0.53 M334.62 10.9 C347.09 8.29, 358.03 3.65, 363.16 0.74" stroke="#000000" stroke-width="1" fill="none"></path></g><g transform="translate(1924.9244342888126 782.7920942578321) rotate(0 180.87400447292254 0.2599124436266038)"><path d="M335.47 -10.83 C344.67 -6.21, 353.8 -2.57, 362.43 0.53 M334.74 -9.62 C347.15 -4.21, 358.04 -0.83, 363.16 0.74" stroke="#000000" stroke-width="1" fill="none"></path></g></g><g stroke-linecap="round"><g transform="translate(2430.2815771459555 1385.292094257832) rotate(0 1.1402120888033096 211.2594441671856)"><path d="M-0.64 0.55 C-0.46 71.02, 0.34 351.35, 0.75 421.64 M1.22 -0.2 C1.8 70.49, 2.95 352.11, 2.92 422.72" stroke="#000000" stroke-width="1" fill="none"></path></g><g transform="translate(2430.2815771459555 1385.292094257832) rotate(0 1.1402120888033096 211.2594441671856)"><path d="M-6.48 392.83 C-6.33 402.25, -2.52 410.75, 1.72 423.38 M-7.25 395.17 C-2.79 404.31, -0.07 414.74, 3.9 422.27" stroke="#000000" stroke-width="1" fill="none"></path></g><g transform="translate(2430.2815771459555 1385.292094257832) rotate(0 1.1402120888033096 211.2594441671856)"><path d="M14.04 392.78 C8.67 402.1, 6.94 410.62, 1.72 423.38 M13.27 395.12 C10.09 404.42, 5.17 414.86, 3.9 422.27" stroke="#000000" stroke-width="1" fill="none"></path></g></g></svg>